<?xml version="1.0" standalone="no"?>
<!DOCTYPE svg PUBLIC "-//W3C//DTD SVG 20010904//EN"
 "http://www.w3.org/TR/2001/REC-SVG-20010904/DTD/svg10.dtd">
<svg version="1.0" xmlns="http://www.w3.org/2000/svg"
 width="3264.000000pt" height="3264.000000pt" viewBox="0 0 3264.000000 3264.000000"
 preserveAspectRatio="xMidYMid meet">

<g transform="translate(0.000000,3264.000000) scale(0.100000,-0.100000)"
fill="#000000" stroke="none">
<path d="M9071 29805 c-30 -9 -88 -32 -130 -53 -65 -32 -84 -48 -128 -106 -66
-89 -88 -160 -86 -281 2 -103 19 -153 81 -237 52 -70 109 -116 212 -169 88
-46 240 -118 307 -145 21 -9 65 -28 98 -43 33 -16 89 -42 125 -59 36 -16 99
-46 142 -66 42 -20 78 -36 81 -36 3 0 61 -27 130 -60 69 -33 128 -60 131 -60
2 0 51 -22 108 -49 57 -27 130 -61 163 -75 33 -13 130 -58 216 -98 85 -40 171
-79 190 -87 19 -7 79 -35 134 -61 55 -27 138 -65 185 -85 79 -35 145 -66 326
-151 77 -36 97 -54 92 -80 -4 -24 -304 -174 -512 -257 -69 -28 -224 -106 -231
-117 -8 -12 -265 -140 -282 -140 -5 0 -43 -23 -84 -51 -41 -28 -114 -71 -164
-95 -49 -24 -119 -62 -154 -85 -35 -22 -91 -56 -125 -73 -34 -18 -88 -51 -119
-74 -31 -23 -91 -61 -134 -83 -43 -22 -83 -48 -89 -57 -6 -10 -42 -33 -79 -52
-37 -19 -83 -49 -103 -66 -43 -36 -139 -104 -148 -104 -3 0 -26 -17 -52 -38
-26 -21 -72 -54 -102 -72 -30 -19 -62 -40 -70 -47 -47 -41 -103 -83 -111 -83
-4 0 -23 -13 -41 -28 -18 -16 -60 -48 -93 -71 -33 -23 -96 -71 -140 -107 -44
-35 -97 -78 -118 -94 -45 -34 -116 -94 -197 -165 -31 -27 -105 -90 -163 -139
-59 -49 -107 -93 -107 -98 0 -4 -13 -14 -29 -23 -16 -8 -91 -75 -168 -148 -76
-73 -167 -160 -203 -193 -60 -55 -294 -294 -451 -459 -37 -38 -100 -109 -140
-157 -41 -47 -131 -151 -202 -231 -70 -79 -159 -187 -198 -238 -38 -52 -79
-105 -91 -119 -38 -43 -142 -172 -163 -200 -11 -16 -47 -66 -80 -111 -32 -46
-62 -86 -66 -89 -4 -3 -30 -39 -58 -80 -73 -110 -104 -153 -126 -176 -17 -19
-93 -134 -252 -383 -23 -36 -50 -77 -60 -91 -30 -42 -115 -183 -135 -224 -11
-21 -47 -82 -80 -135 -34 -53 -68 -107 -77 -121 -8 -14 -35 -63 -59 -110 -24
-47 -68 -128 -97 -180 -80 -145 -161 -303 -220 -430 -29 -63 -76 -164 -105
-225 -28 -60 -65 -141 -82 -180 -17 -38 -46 -101 -63 -140 -18 -38 -43 -99
-55 -135 -13 -36 -27 -69 -31 -75 -14 -19 -91 -210 -139 -345 -26 -74 -69
-191 -94 -260 -26 -69 -53 -145 -60 -171 -13 -46 -45 -149 -122 -389 -37 -119
-74 -254 -167 -620 -29 -115 -53 -219 -72 -320 -40 -209 -97 -461 -114 -510
-22 -59 -57 -237 -71 -360 -5 -41 -16 -138 -25 -215 -8 -77 -22 -203 -30 -280
-41 -363 -69 -1232 -53 -1615 13 -301 28 -577 38 -700 25 -304 25 -308 50
-480 11 -74 26 -189 35 -255 9 -66 23 -160 32 -210 8 -49 23 -139 33 -200 10
-60 28 -150 39 -199 12 -50 21 -106 21 -125 1 -20 17 -94 36 -166 19 -71 44
-173 54 -226 19 -95 40 -179 85 -329 12 -41 32 -115 44 -165 51 -208 81 -303
194 -625 31 -85 61 -171 67 -190 24 -68 82 -226 100 -270 10 -25 35 -88 55
-140 20 -52 42 -108 50 -125 7 -16 28 -68 46 -115 17 -47 40 -103 49 -125 76
-172 125 -276 144 -310 13 -22 47 -92 76 -155 89 -196 122 -262 168 -338 24
-41 70 -127 101 -192 32 -66 69 -134 83 -152 14 -19 49 -79 77 -134 29 -55 69
-122 89 -149 21 -28 55 -84 76 -125 43 -82 74 -131 93 -143 6 -4 35 -48 64
-98 28 -50 67 -111 85 -135 19 -24 34 -47 34 -51 0 -3 26 -43 58 -87 32 -45
62 -88 65 -96 4 -8 23 -35 42 -60 19 -25 58 -79 86 -120 28 -41 60 -84 71 -95
18 -19 105 -134 173 -230 17 -24 48 -63 70 -87 22 -25 68 -81 103 -124 204
-258 212 -268 357 -428 61 -67 150 -166 199 -221 156 -174 230 -246 279 -271
26 -14 58 -35 70 -47 113 -113 234 -220 269 -238 56 -29 140 -48 209 -49 71 0
205 39 263 77 124 82 192 227 184 393 -5 98 -32 169 -93 237 -225 254 -302
337 -417 449 -73 72 -167 168 -207 215 -41 46 -100 113 -132 149 -31 36 -77
89 -100 119 -24 30 -53 65 -64 76 -11 12 -39 46 -62 76 -23 30 -66 84 -95 121
-72 91 -149 195 -173 234 -25 39 -132 180 -194 253 -47 56 -171 239 -171 253
0 11 -88 139 -110 160 -17 16 -90 130 -90 141 0 9 -112 191 -130 212 -10 11
-34 53 -54 93 -20 40 -52 94 -70 120 -19 26 -57 92 -86 147 -29 55 -58 107
-65 115 -7 8 -24 42 -39 75 -14 33 -33 74 -42 90 -9 17 -47 88 -85 158 -38 70
-78 150 -89 177 -11 27 -35 81 -55 120 -19 38 -35 74 -35 81 0 6 -15 41 -34
78 -18 37 -37 78 -41 91 -4 14 -20 50 -35 82 -16 31 -31 67 -35 80 -6 18 -97
245 -174 433 -35 85 -71 182 -71 190 0 12 -108 357 -187 595 -30 91 -69 233
-88 316 -19 84 -46 192 -60 242 -14 50 -34 139 -46 199 -11 59 -27 134 -35
165 -8 32 -21 102 -29 155 -8 54 -23 141 -33 193 -61 301 -122 817 -142 1215
-6 105 -15 278 -21 385 -19 342 8 1229 46 1525 9 66 27 212 40 325 14 113 34
255 45 315 11 61 38 211 61 335 91 503 128 668 211 940 20 63 55 185 78 270
24 85 53 187 65 225 12 39 28 95 35 125 7 30 19 68 27 84 8 16 22 52 30 80 8
28 19 56 23 61 8 10 49 111 105 255 90 237 148 385 186 475 23 55 51 125 64
155 12 30 38 84 58 120 33 59 52 98 124 245 13 28 62 122 108 210 45 88 120
232 165 320 45 87 94 177 110 200 15 22 60 92 100 155 40 63 80 126 89 139 28
42 56 85 76 120 23 37 79 125 184 285 40 60 80 125 91 145 10 20 28 45 40 56
12 11 40 45 61 75 22 30 61 82 87 115 124 157 216 274 245 313 53 71 246 315
279 352 265 303 723 778 903 937 195 171 301 268 308 280 4 7 29 27 55 44 26
18 70 53 99 78 28 25 82 71 118 101 37 30 89 74 116 97 27 23 58 47 70 54 23
12 145 99 244 174 165 124 235 175 266 191 19 9 59 36 89 59 30 23 89 64 130
90 41 27 82 56 90 66 8 9 49 34 90 55 41 22 95 54 119 72 25 19 76 49 115 69
38 19 81 43 95 52 14 10 47 32 72 49 26 17 90 51 142 76 52 24 122 62 155 85
33 22 98 57 143 78 89 41 161 78 310 159 52 29 105 55 119 59 14 4 147 59 295
122 149 63 284 120 302 125 70 24 81 -18 32 -122 -17 -36 -42 -91 -55 -123
-14 -33 -49 -109 -78 -170 -30 -62 -70 -150 -91 -197 -20 -47 -54 -121 -76
-165 -21 -44 -69 -147 -105 -230 -37 -82 -86 -192 -110 -243 -24 -51 -44 -95
-44 -97 0 -2 -14 -35 -31 -72 -17 -37 -52 -113 -77 -168 -25 -55 -51 -107 -58
-115 -6 -8 -15 -26 -19 -40 -7 -22 -116 -265 -207 -460 -17 -36 -48 -105 -70
-155 -22 -49 -55 -124 -75 -165 -19 -41 -48 -102 -63 -135 -33 -69 -84 -190
-108 -255 -13 -34 -17 -76 -16 -167 l1 -122 44 -73 c66 -109 137 -173 224
-201 134 -44 235 -35 374 35 72 36 91 51 129 103 47 63 114 197 233 460 39 88
92 203 116 255 25 52 53 115 63 140 16 39 65 146 130 285 10 22 80 175 155
340 75 165 142 314 150 330 39 83 155 337 155 340 0 4 126 279 160 350 37 78
90 194 90 199 0 2 23 53 51 113 51 106 117 252 259 568 72 162 143 316 160
347 37 68 173 390 177 421 9 61 9 62 -292 202 -38 18 -104 47 -145 65 -41 19
-142 65 -225 103 -82 38 -175 80 -205 92 -30 12 -107 47 -170 77 -63 31 -182
86 -265 123 -82 37 -193 88 -245 112 -52 25 -113 52 -135 60 -22 9 -47 22 -55
28 -8 7 -33 18 -55 25 -22 7 -109 46 -194 87 -84 40 -155 73 -158 73 -2 0 -42
18 -89 40 -47 22 -87 40 -90 40 -2 0 -70 32 -150 70 -80 39 -148 70 -150 70
-5 0 -47 19 -214 97 -147 69 -150 70 -240 109 -47 20 -134 60 -195 89 -60 28
-175 80 -255 115 -80 35 -152 69 -160 75 -8 6 -46 25 -85 41 -38 16 -88 39
-110 51 -22 13 -47 23 -55 23 -8 0 -35 11 -60 24 -109 58 -262 85 -349 61z
m187 -54 c37 -10 106 -37 153 -60 48 -22 92 -41 97 -41 6 0 23 -6 39 -14 93
-45 162 -75 191 -85 18 -5 45 -19 59 -31 14 -11 35 -20 47 -20 11 0 35 -9 51
-20 17 -11 38 -20 48 -20 9 0 26 -9 36 -19 10 -10 43 -26 73 -35 29 -8 63 -24
74 -34 27 -25 59 -42 80 -42 9 0 64 -22 121 -50 57 -27 108 -50 113 -50 6 0
36 -13 68 -30 65 -34 147 -70 159 -70 4 0 60 -27 125 -60 64 -33 124 -60 133
-60 8 0 50 -19 93 -43 42 -24 95 -50 117 -59 22 -9 65 -26 95 -38 30 -12 90
-40 132 -61 43 -21 84 -39 92 -39 7 0 19 -6 25 -14 7 -8 24 -17 38 -21 27 -6
117 -47 269 -121 49 -24 94 -44 98 -44 8 0 168 -74 196 -91 25 -15 52 -27 125
-55 39 -15 86 -37 105 -49 19 -12 53 -28 75 -35 22 -7 51 -21 65 -31 14 -9 42
-20 62 -24 21 -4 42 -13 49 -21 6 -8 24 -14 39 -14 15 0 34 -7 41 -17 8 -9 39
-27 69 -40 92 -41 142 -64 205 -93 109 -52 197 -90 209 -90 7 0 27 -11 46 -25
19 -14 53 -30 75 -36 39 -11 98 -48 122 -77 10 -12 9 -22 -6 -51 -10 -20 -24
-54 -31 -76 -7 -22 -25 -60 -40 -86 -15 -25 -31 -56 -35 -70 -7 -25 -50 -127
-90 -214 -12 -27 -28 -61 -34 -75 -6 -14 -19 -38 -29 -55 -10 -16 -22 -43 -26
-60 -6 -28 -27 -79 -47 -115 -30 -53 -109 -224 -109 -234 0 -6 -13 -36 -30
-66 -16 -30 -34 -64 -39 -75 -5 -11 -18 -41 -29 -65 -11 -25 -50 -112 -87
-195 -37 -82 -73 -163 -80 -180 -21 -48 -135 -286 -155 -325 -10 -19 -23 -54
-30 -78 -6 -23 -24 -65 -40 -93 -17 -27 -30 -54 -30 -58 0 -5 -11 -28 -24 -52
-13 -24 -27 -55 -31 -69 -6 -22 -34 -84 -126 -276 -16 -34 -29 -66 -29 -71 0
-11 -55 -119 -69 -138 -5 -5 -12 -21 -16 -35 -4 -14 -23 -61 -42 -105 -35 -82
-38 -88 -66 -140 -8 -16 -30 -64 -47 -105 -18 -41 -45 -102 -60 -135 -26 -55
-53 -115 -100 -220 -10 -22 -34 -74 -54 -115 -20 -41 -36 -79 -36 -83 0 -5 -8
-21 -19 -35 -10 -15 -22 -38 -26 -52 -30 -100 -131 -293 -197 -373 -41 -50
-49 -57 -68 -57 -10 0 -22 -4 -25 -10 -9 -14 -140 -51 -184 -52 -99 -1 -202
39 -273 107 -21 19 -38 37 -38 39 0 2 -16 28 -35 57 -19 30 -35 61 -35 71 0 9
-4 19 -9 22 -4 3 -11 34 -14 68 -6 63 12 147 49 235 8 17 14 34 14 38 0 8 20
50 121 262 27 56 49 104 49 108 0 3 22 52 49 108 26 56 63 138 81 182 19 44
39 87 46 95 19 23 70 131 78 165 4 17 28 73 53 125 25 52 56 118 68 145 13 28
32 71 44 96 12 25 21 53 21 62 0 9 4 18 9 22 10 5 30 46 71 140 12 28 39 86
60 130 21 44 50 105 63 135 14 30 42 90 61 133 20 42 36 82 36 87 0 6 4 10 9
10 5 0 14 15 21 33 7 17 21 52 32 77 12 25 26 61 33 81 7 19 25 59 39 87 14
28 26 58 26 67 0 8 3 15 8 15 9 0 44 68 76 151 15 36 48 108 74 160 58 114 77
169 68 202 -6 26 -37 43 -69 38 -26 -4 -145 -59 -152 -71 -3 -5 -14 -10 -23
-10 -9 -1 -35 -9 -57 -20 -22 -11 -46 -19 -54 -20 -7 0 -34 -11 -60 -24 -136
-71 -232 -114 -278 -126 -29 -6 -63 -19 -75 -28 -13 -10 -39 -24 -58 -33 -83
-38 -267 -133 -290 -149 -14 -9 -36 -21 -50 -25 -34 -10 -216 -113 -231 -131
-6 -8 -17 -14 -25 -14 -22 0 -228 -110 -249 -134 -11 -12 -47 -34 -80 -50 -61
-29 -124 -67 -160 -97 -11 -9 -31 -20 -45 -24 -14 -4 -32 -13 -40 -20 -8 -8
-38 -25 -67 -39 -28 -15 -67 -41 -86 -60 -19 -18 -73 -56 -119 -84 -47 -29
-91 -59 -98 -67 -7 -8 -16 -15 -21 -15 -10 0 -135 -85 -163 -111 -11 -11 -43
-36 -71 -54 -27 -19 -72 -50 -100 -70 -27 -20 -66 -47 -87 -60 -20 -13 -39
-29 -43 -35 -4 -6 -37 -31 -74 -56 -78 -52 -162 -119 -211 -168 -19 -19 -53
-47 -74 -61 -22 -15 -48 -37 -58 -50 -10 -12 -40 -37 -68 -55 -27 -18 -50 -38
-50 -46 0 -8 -4 -14 -9 -14 -4 0 -22 -12 -38 -27 -109 -100 -178 -159 -192
-164 -9 -4 -37 -29 -62 -55 -83 -89 -185 -184 -196 -184 -7 0 -22 -15 -35 -32
-12 -18 -126 -136 -252 -263 -125 -126 -236 -242 -245 -256 -9 -15 -42 -55
-74 -90 -69 -76 -101 -113 -142 -163 -16 -21 -34 -43 -40 -49 -114 -135 -175
-213 -175 -222 0 -6 -30 -44 -110 -138 -20 -23 -58 -71 -85 -107 -27 -36 -67
-85 -88 -110 -22 -25 -43 -55 -48 -67 -5 -13 -13 -23 -18 -23 -5 0 -19 -15
-30 -33 -11 -18 -31 -46 -45 -62 -14 -17 -26 -33 -26 -36 0 -4 -13 -21 -29
-40 -17 -18 -40 -54 -52 -79 -12 -25 -34 -61 -48 -80 -14 -19 -32 -44 -38 -55
-94 -152 -119 -190 -161 -246 -19 -24 -36 -56 -39 -71 -3 -15 -11 -29 -19 -32
-8 -3 -14 -12 -14 -19 0 -8 -7 -20 -15 -27 -8 -6 -30 -41 -50 -76 -20 -35 -40
-64 -45 -64 -6 0 -10 -9 -10 -21 0 -11 -13 -34 -30 -50 -16 -16 -54 -78 -83
-137 -30 -59 -72 -138 -93 -177 -20 -38 -65 -124 -99 -190 -34 -66 -69 -133
-78 -150 -14 -26 -61 -128 -81 -175 -3 -8 -15 -28 -26 -45 -11 -16 -29 -50
-41 -75 -12 -25 -25 -52 -30 -60 -18 -32 -63 -127 -79 -170 -10 -25 -34 -83
-54 -130 -20 -46 -36 -93 -36 -104 0 -11 -6 -27 -13 -35 -8 -9 -31 -61 -51
-116 -21 -55 -46 -118 -56 -140 -10 -22 -21 -51 -25 -65 -4 -14 -18 -48 -30
-76 -13 -28 -28 -70 -34 -92 -6 -22 -18 -53 -26 -69 -8 -15 -15 -33 -15 -40 0
-6 -9 -28 -21 -47 -11 -20 -27 -57 -34 -83 -8 -27 -28 -95 -45 -153 -40 -135
-42 -142 -80 -285 -17 -66 -45 -163 -61 -215 -43 -137 -47 -151 -55 -195 -3
-22 -10 -44 -14 -50 -21 -27 -83 -307 -115 -515 -7 -47 -22 -137 -33 -200 -11
-63 -25 -142 -31 -175 -6 -33 -17 -89 -25 -125 -16 -73 -39 -240 -62 -440 -8
-74 -19 -162 -24 -195 -18 -112 -29 -239 -35 -405 -4 -91 -11 -212 -15 -270
-9 -110 -6 -1053 3 -1105 3 -16 8 -82 12 -145 17 -324 46 -649 71 -781 8 -42
14 -93 14 -114 0 -47 31 -238 71 -434 16 -79 29 -157 29 -173 0 -16 6 -57 14
-91 8 -34 22 -98 31 -142 25 -121 54 -241 80 -330 13 -44 26 -106 30 -139 4
-32 15 -83 26 -115 31 -89 56 -170 79 -251 12 -41 34 -113 49 -160 15 -47 45
-139 65 -205 21 -66 42 -129 46 -140 5 -11 18 -49 29 -85 25 -82 39 -122 107
-295 49 -123 70 -174 129 -310 7 -16 30 -70 50 -120 20 -49 50 -115 66 -145
16 -30 29 -62 29 -70 0 -8 11 -34 24 -57 13 -23 29 -59 36 -80 7 -21 23 -58
36 -83 13 -25 24 -48 24 -51 0 -12 92 -174 101 -177 5 -2 9 -11 9 -19 0 -9 13
-37 28 -62 16 -25 34 -62 41 -82 6 -20 23 -51 36 -69 14 -19 25 -41 25 -51 0
-9 6 -22 14 -28 8 -6 20 -26 26 -44 12 -30 43 -82 111 -184 15 -22 30 -52 34
-65 5 -12 28 -53 51 -89 24 -36 44 -69 44 -73 0 -3 18 -33 40 -65 22 -32 40
-62 40 -65 0 -4 14 -27 30 -51 17 -24 30 -48 30 -53 0 -6 22 -37 48 -69 65
-78 89 -114 123 -181 33 -66 67 -114 199 -284 52 -67 113 -149 135 -182 37
-56 130 -179 237 -315 43 -55 241 -293 303 -365 6 -6 36 -43 69 -81 61 -73
263 -283 357 -371 120 -114 328 -349 373 -422 15 -25 35 -126 36 -177 0 -82
-36 -178 -97 -257 -70 -91 -230 -156 -357 -144 -103 10 -195 57 -278 143 -106
110 -185 177 -225 191 -37 13 -57 32 -193 183 -41 46 -97 107 -125 136 -27 29
-73 78 -101 110 -113 128 -150 168 -167 181 -9 7 -17 20 -17 28 0 8 -6 17 -14
20 -8 3 -39 37 -68 76 -88 116 -107 141 -151 191 -23 27 -46 57 -52 67 -5 10
-31 40 -56 67 -26 27 -49 59 -53 71 -4 12 -26 41 -49 64 -23 24 -55 63 -71 88
-17 25 -35 50 -41 55 -7 6 -38 48 -70 95 -32 47 -71 100 -86 118 -16 18 -29
36 -29 41 0 5 -30 48 -66 97 -37 49 -70 98 -75 109 -17 38 -51 90 -70 106 -10
9 -19 19 -19 22 0 13 -76 135 -117 189 -24 31 -56 85 -72 120 -15 35 -35 69
-44 77 -10 7 -17 18 -17 23 0 6 -12 24 -26 41 -14 17 -48 76 -76 131 -27 56
-67 122 -89 147 -21 26 -49 76 -62 111 -29 75 -69 157 -106 213 -45 69 -51 79
-62 105 -12 30 -58 125 -168 353 -44 92 -81 170 -81 172 0 3 -11 22 -23 43
-13 20 -30 55 -37 77 -13 42 -51 138 -76 192 -8 17 -38 96 -68 175 -30 78 -64
165 -75 191 -27 62 -110 291 -171 472 -27 77 -57 160 -67 185 -11 25 -23 62
-27 84 -4 21 -11 46 -16 55 -9 17 -55 183 -90 326 -12 50 -32 119 -45 155 -12
36 -33 115 -45 175 -12 61 -31 144 -42 185 -32 121 -65 262 -72 305 -4 22 -17
99 -31 170 -13 72 -34 182 -46 245 -11 63 -27 160 -34 215 -8 55 -18 120 -24
145 -6 25 -11 69 -11 98 0 29 -5 62 -10 73 -6 11 -15 73 -19 138 -5 65 -11
123 -14 127 -5 9 -11 75 -22 254 -3 52 -10 127 -15 165 -5 39 -12 167 -15 285
-4 118 -10 265 -14 325 -13 203 13 1127 39 1365 5 52 15 147 21 210 32 345 37
396 43 410 3 8 19 101 35 205 19 120 37 205 50 230 11 22 27 76 34 120 8 44
26 134 40 200 14 66 31 147 37 180 14 77 35 166 43 185 3 8 15 60 27 115 12
55 25 109 30 120 11 28 39 132 50 185 4 25 16 70 25 100 9 30 29 100 45 155
15 55 37 125 48 155 11 30 30 91 42 135 24 86 55 187 69 220 22 52 43 107 69
185 47 137 64 183 78 215 7 17 24 62 37 100 13 39 40 106 59 150 19 44 50 118
68 165 18 47 38 96 45 110 23 46 75 159 75 165 0 8 38 95 50 115 31 53 110
225 110 240 0 9 7 23 15 30 8 7 15 20 15 30 0 10 6 22 13 28 7 6 28 44 46 84
18 40 37 80 42 88 4 8 18 35 31 60 12 25 38 68 56 97 19 28 53 91 76 140 37
78 57 115 103 188 7 11 29 49 50 85 20 36 45 76 55 89 10 13 18 34 18 46 0 13
6 25 14 28 7 3 30 34 50 69 89 153 402 629 469 714 17 23 61 82 97 133 36 51
83 116 105 146 22 30 57 78 78 107 42 58 90 115 154 187 23 25 53 63 67 84 14
20 37 53 51 73 14 20 49 64 80 98 30 33 70 79 89 101 47 55 137 157 207 235
32 36 75 84 96 108 21 24 90 96 153 160 63 64 138 142 166 172 28 30 113 114
189 185 76 72 175 166 220 210 45 44 103 98 129 120 26 22 55 48 64 57 10 9
35 29 56 43 22 15 48 38 58 51 11 13 44 40 74 60 30 20 59 44 64 54 6 10 28
31 49 47 59 42 194 152 252 206 10 9 24 17 29 17 6 0 33 20 59 45 26 25 54 45
62 45 8 0 39 23 69 51 59 55 98 83 283 204 32 21 77 55 100 76 23 22 45 39 49
39 10 0 60 34 106 72 17 15 65 43 105 61 39 19 86 49 102 67 17 17 39 36 50
41 11 5 27 13 35 19 8 5 35 18 60 29 25 11 54 29 64 40 11 12 40 33 65 48 25
14 48 29 51 33 3 4 19 11 37 14 18 4 54 25 81 47 28 21 101 64 163 95 63 31
129 66 147 77 112 73 136 87 152 87 10 0 23 7 30 15 7 8 20 15 29 15 18 0 126
54 151 75 8 7 27 15 41 18 14 4 36 16 50 28 13 12 47 32 76 45 28 13 55 29 58
34 3 6 15 10 26 10 18 0 44 10 134 50 11 5 43 19 70 31 28 12 84 38 125 58 41
20 101 45 132 55 68 22 97 50 105 99 5 33 3 37 -36 61 -22 14 -46 26 -53 26
-7 0 -44 15 -83 34 -143 71 -403 186 -418 186 -4 0 -24 11 -45 24 -20 12 -48
27 -62 31 -14 4 -41 18 -60 30 -20 12 -51 26 -70 30 -18 4 -40 14 -48 21 -7 8
-20 14 -29 14 -8 0 -41 13 -72 29 -68 36 -188 91 -199 91 -4 0 -27 14 -52 30
-25 16 -54 30 -65 30 -11 0 -29 6 -40 14 -11 7 -45 22 -76 34 -31 11 -73 32
-94 46 -21 14 -43 26 -49 26 -6 0 -38 14 -71 31 -33 17 -86 39 -117 49 -31 10
-96 39 -145 64 -48 25 -113 56 -143 69 -30 14 -89 40 -130 59 -41 20 -92 41
-112 47 -20 7 -47 20 -60 30 -13 10 -41 24 -63 31 -22 7 -56 21 -75 31 -19 11
-42 19 -51 19 -9 0 -19 6 -22 14 -3 8 -31 31 -62 52 -57 37 -83 70 -136 173
-26 49 -29 66 -29 148 0 51 4 95 10 98 6 4 8 10 5 15 -2 4 6 24 20 44 14 20
25 41 25 46 0 12 100 108 131 125 95 55 189 66 297 36z"/>
<path d="M16260 28729 c-25 -5 -80 -23 -122 -40 -83 -33 -128 -73 -170 -150
-13 -23 -29 -53 -37 -67 -38 -70 -50 -185 -30 -284 24 -117 122 -241 229 -290
102 -46 174 -58 372 -58 319 0 892 -28 1128 -54 74 -9 198 -22 275 -31 77 -8
214 -27 305 -40 91 -14 192 -30 225 -34 33 -5 94 -15 136 -21 112 -17 224 -2
320 43 87 41 131 79 181 157 58 91 63 113 63 250 -1 113 -3 129 -25 165 -31
52 -144 187 -170 203 -34 21 -143 59 -190 66 -25 4 -92 16 -150 27 -58 11
-134 24 -170 29 -591 78 -791 100 -1135 121 -225 14 -978 20 -1035 8z m845
-33 c22 -3 137 -10 255 -15 118 -6 249 -15 290 -20 41 -6 183 -23 315 -37 132
-14 254 -27 270 -30 37 -6 183 -30 295 -49 47 -8 119 -19 160 -25 151 -20 234
-64 325 -173 67 -81 81 -113 91 -212 7 -80 -25 -205 -67 -260 -16 -22 -37 -51
-46 -65 -9 -15 -55 -45 -112 -73 l-96 -48 -107 1 c-59 0 -129 4 -155 9 -26 6
-109 19 -183 30 -74 11 -180 27 -235 35 -194 29 -642 74 -855 86 -118 6 -231
13 -250 15 -19 2 -175 4 -346 5 -344 1 -390 7 -509 62 -62 29 -145 98 -145
121 0 4 -9 20 -20 35 -22 30 -60 156 -60 199 0 63 42 183 88 250 40 58 58 74
117 105 123 65 144 68 565 63 206 -2 393 -6 415 -9z"/>
<path d="M20865 27876 c-52 -16 -77 -29 -151 -79 -61 -42 -106 -97 -145 -176
-30 -63 -37 -198 -14 -289 19 -80 72 -177 113 -207 59 -44 212 -129 287 -160
44 -18 100 -42 125 -53 25 -11 101 -44 170 -73 126 -52 564 -266 740 -361 52
-28 122 -64 155 -81 33 -16 74 -40 91 -52 17 -13 42 -27 55 -30 13 -3 42 -19
64 -35 22 -16 56 -38 75 -49 20 -10 74 -43 120 -71 47 -29 98 -60 114 -69 16
-9 50 -30 76 -48 105 -70 196 -107 300 -122 130 -18 245 19 346 110 68 61 83
82 120 176 23 58 27 81 25 153 -2 102 -12 143 -54 223 -26 49 -50 75 -125 134
-51 41 -107 80 -126 88 -18 8 -54 30 -80 50 -25 19 -49 35 -52 35 -3 0 -37 20
-75 45 -38 24 -86 54 -106 65 -21 11 -60 35 -88 52 -27 17 -117 67 -200 111
-82 44 -161 88 -175 97 -14 9 -41 23 -60 30 -19 7 -46 21 -60 31 -26 18 -307
159 -475 238 -49 24 -98 47 -109 53 -10 5 -77 34 -150 64 -72 30 -149 63 -171
73 -55 26 -213 95 -250 109 -84 31 -241 40 -310 18z m235 -37 c52 -11 228 -77
250 -94 8 -6 56 -28 105 -48 186 -74 381 -161 425 -188 8 -5 49 -25 90 -45
150 -71 341 -168 346 -176 3 -4 12 -8 21 -8 9 0 39 -15 67 -34 29 -19 100 -59
160 -90 141 -73 237 -126 256 -141 8 -7 40 -26 71 -43 30 -17 86 -51 123 -76
38 -25 73 -46 79 -46 6 0 24 -11 41 -23 17 -13 47 -31 67 -41 19 -9 77 -53
128 -97 82 -72 97 -91 132 -162 35 -72 39 -89 39 -157 0 -121 -56 -254 -133
-311 -131 -98 -146 -104 -267 -104 -96 1 -111 3 -182 33 -42 19 -94 46 -115
61 -21 15 -45 30 -53 34 -24 11 -200 117 -324 194 -28 18 -58 36 -66 40 -8 3
-44 25 -80 46 -36 22 -92 53 -125 69 -33 16 -91 46 -130 68 -38 22 -140 73
-225 115 -85 41 -162 80 -170 85 -8 6 -35 20 -60 31 -25 11 -54 25 -65 31 -11
6 -31 17 -45 24 -27 13 -251 111 -285 124 -11 5 -51 22 -88 39 -37 17 -109 47
-159 67 -80 32 -146 71 -241 145 -54 41 -117 197 -117 288 0 84 35 181 86 241
24 29 44 56 44 61 0 5 6 9 13 9 7 0 32 14 55 31 69 50 136 70 217 63 39 -3 90
-10 115 -15z"/>
<path d="M24877 25305 c-94 -19 -162 -53 -227 -112 -68 -63 -125 -182 -136
-284 -10 -107 29 -233 91 -294 12 -11 48 -54 82 -95 33 -41 156 -175 274 -296
118 -122 244 -255 281 -295 140 -153 459 -552 560 -699 27 -39 116 -158 198
-265 130 -170 171 -228 206 -295 19 -36 50 -85 69 -110 54 -72 125 -176 125
-184 0 -10 54 -101 126 -212 29 -45 66 -108 83 -141 16 -34 43 -80 59 -104 37
-55 163 -294 324 -611 72 -143 161 -337 173 -378 4 -14 17 -43 28 -65 22 -45
146 -343 209 -505 22 -58 46 -116 53 -130 21 -41 106 -304 257 -795 22 -71 48
-155 58 -185 10 -30 26 -93 34 -139 9 -47 34 -155 56 -240 22 -86 46 -194 54
-241 8 -47 24 -124 35 -171 11 -47 25 -125 31 -174 6 -48 18 -116 26 -152 26
-113 86 -569 109 -833 13 -149 34 -539 50 -930 11 -277 -29 -1120 -68 -1425
-15 -110 -31 -240 -37 -290 -13 -99 -34 -228 -80 -470 -16 -88 -45 -243 -64
-345 -67 -362 -79 -409 -151 -640 -12 -41 -39 -131 -59 -200 -170 -588 -168
-584 -369 -1080 -186 -459 -208 -511 -260 -620 -49 -102 -253 -498 -332 -645
-26 -49 -61 -117 -78 -150 -16 -33 -47 -91 -70 -130 -40 -70 -69 -115 -230
-363 -48 -73 -87 -134 -87 -137 0 -3 -15 -27 -32 -54 -317 -475 -329 -493
-493 -690 -22 -26 -65 -81 -95 -120 -30 -40 -81 -105 -113 -144 -32 -40 -77
-97 -99 -127 -56 -75 -169 -209 -307 -365 -112 -126 -666 -686 -746 -754 -39
-33 -146 -127 -271 -241 -34 -30 -79 -68 -99 -85 -21 -16 -58 -48 -84 -71 -25
-22 -62 -51 -81 -65 -19 -13 -60 -46 -91 -74 -75 -67 -123 -104 -189 -148
-149 -100 -187 -127 -210 -148 -14 -13 -54 -44 -90 -68 -36 -24 -80 -57 -98
-73 -18 -15 -52 -37 -75 -49 -23 -12 -69 -43 -102 -68 -33 -26 -84 -60 -113
-76 -29 -15 -70 -43 -91 -62 -22 -18 -74 -51 -117 -74 -44 -23 -96 -55 -117
-71 -21 -17 -71 -47 -110 -67 -40 -21 -110 -61 -156 -90 -46 -29 -111 -64
-145 -79 -33 -14 -86 -42 -116 -61 -30 -19 -179 -98 -330 -174 -249 -126 -390
-189 -655 -293 -49 -20 -119 -50 -155 -66 -36 -18 -83 -32 -105 -32 -34 -1
-40 2 -43 21 -3 19 92 244 148 353 27 51 93 194 130 280 18 41 50 109 70 150
21 41 64 131 95 200 32 69 78 168 102 220 25 52 63 136 84 185 22 50 60 131
84 180 24 50 86 182 138 295 52 113 125 270 162 350 37 80 78 170 92 200 14
30 46 98 70 150 155 328 158 338 157 492 l-1 126 -58 92 c-37 59 -68 96 -89
107 -17 9 -35 22 -41 29 -14 18 -100 50 -171 64 -91 18 -211 -12 -330 -83 -39
-23 -53 -38 -98 -106 -35 -54 -176 -331 -176 -347 0 -3 -183 -397 -257 -554
-25 -52 -57 -120 -70 -150 -14 -30 -57 -122 -95 -205 -38 -82 -112 -244 -165
-360 -53 -115 -118 -255 -144 -310 -63 -132 -301 -648 -326 -705 -11 -25 -41
-88 -66 -140 -25 -52 -84 -178 -130 -280 -113 -246 -191 -418 -237 -515 -107
-228 -133 -283 -145 -310 -8 -16 -32 -70 -54 -118 -47 -101 -51 -144 -18 -174
29 -28 197 -110 517 -255 36 -16 101 -47 145 -68 44 -21 105 -50 135 -63 75
-34 486 -223 535 -247 192 -92 644 -300 652 -300 4 0 14 -6 22 -13 9 -8 36
-22 61 -31 54 -21 216 -95 397 -183 73 -34 134 -63 137 -63 2 0 67 -30 143
-66 76 -36 199 -93 273 -126 74 -33 189 -86 255 -118 142 -68 184 -88 460
-215 116 -54 215 -101 220 -105 30 -22 179 -62 251 -67 68 -5 92 -2 150 17
125 41 177 78 232 160 22 33 45 75 50 92 5 18 15 52 22 76 11 35 11 61 1 139
-12 90 -17 103 -63 175 -52 81 -139 159 -201 181 -17 6 -56 24 -87 42 -30 17
-80 41 -110 54 -62 26 -131 58 -306 141 -66 32 -145 68 -175 81 -30 12 -58 26
-64 30 -5 4 -46 21 -90 39 -44 18 -87 39 -96 46 -8 8 -19 14 -22 14 -4 0 -53
22 -110 49 -56 27 -145 68 -197 91 -52 23 -149 68 -215 100 -66 32 -147 70
-180 83 -33 14 -136 62 -228 106 -93 45 -171 81 -174 81 -5 0 -285 129 -341
158 -38 19 -55 43 -46 65 7 20 260 149 434 222 191 80 238 102 297 141 29 19
88 51 130 71 43 19 107 49 143 65 36 17 95 50 131 73 36 24 95 57 131 73 35
16 89 45 119 64 30 19 95 56 144 83 50 26 113 65 142 86 28 21 71 48 95 60 24
13 72 44 108 69 36 26 90 60 120 75 30 16 75 45 100 65 25 20 77 58 115 84 39
25 88 59 110 75 22 15 65 45 95 65 82 54 175 122 285 206 54 41 110 84 125 95
15 11 53 40 85 65 32 25 67 52 79 60 11 8 42 32 67 55 26 22 80 68 120 102
277 231 711 625 775 703 16 19 34 38 40 42 29 19 420 426 439 457 6 9 43 52
84 94 41 43 82 88 90 101 9 13 31 38 50 57 31 31 156 181 206 248 10 14 65 83
122 153 125 153 155 192 222 288 61 88 79 113 146 200 27 36 55 72 60 81 25
40 234 353 286 429 60 86 158 246 191 310 10 19 45 78 79 130 146 228 446 806
626 1205 25 55 55 123 68 150 12 28 37 86 54 130 36 87 43 106 89 210 17 39
49 120 70 180 22 61 69 189 105 285 36 97 86 243 111 325 25 83 59 191 76 240
17 50 51 164 75 255 24 91 56 206 70 255 14 50 32 121 40 159 8 37 17 72 20
76 3 4 18 72 34 151 64 316 101 477 124 549 44 131 86 424 141 975 66 654 72
1425 17 2195 -17 237 -31 382 -46 480 -33 222 -45 309 -51 375 -3 39 -14 111
-24 160 -11 50 -24 126 -30 169 -6 43 -17 104 -24 135 -8 31 -22 104 -30 162
-14 93 -44 222 -76 325 -6 17 -10 38 -10 48 0 27 -49 230 -82 341 -17 55 -43
154 -58 220 -16 66 -38 152 -50 190 -12 39 -26 88 -32 110 -5 22 -16 54 -23
70 -7 17 -29 77 -48 135 -70 209 -157 449 -228 630 -39 102 -87 226 -107 275
-19 50 -42 110 -52 135 -19 48 -63 143 -171 365 -37 77 -80 169 -94 205 -34
82 -83 181 -100 200 -19 22 -91 163 -125 242 -15 37 -48 96 -72 130 -25 35
-59 93 -76 130 -17 37 -57 107 -89 155 -32 48 -73 117 -90 153 -17 36 -50 87
-74 114 -24 27 -53 71 -66 99 -13 27 -40 73 -61 101 -37 51 -55 79 -68 106 -9
18 -117 174 -174 250 -22 30 -58 82 -80 115 -58 88 -140 196 -182 244 -21 22
-38 46 -38 52 0 5 -22 34 -49 62 -26 29 -59 68 -72 88 -13 20 -48 65 -76 100
-52 63 -69 85 -168 209 -47 59 -192 225 -305 350 -250 276 -295 322 -327 335
-40 17 -169 126 -223 188 -101 117 -268 173 -423 142z m259 -64 c67 -33 97
-57 194 -156 112 -113 152 -145 185 -145 14 0 116 -96 133 -126 4 -7 35 -43
70 -80 34 -38 84 -93 110 -122 109 -123 142 -160 196 -217 31 -33 56 -64 56
-68 0 -5 15 -23 33 -40 18 -18 54 -59 79 -92 25 -33 55 -69 67 -79 11 -11 21
-24 21 -29 0 -5 19 -33 43 -61 23 -28 54 -67 69 -86 14 -19 38 -48 52 -64 15
-16 39 -47 54 -70 27 -40 123 -167 180 -236 16 -19 42 -55 57 -80 16 -25 43
-63 62 -86 18 -23 33 -45 33 -50 0 -5 25 -40 55 -79 30 -38 62 -83 70 -100 9
-16 28 -49 43 -71 15 -23 54 -86 86 -140 33 -55 73 -115 90 -136 17 -20 53
-77 79 -128 26 -50 70 -123 96 -163 43 -64 91 -155 91 -172 0 -4 16 -26 36
-48 19 -23 50 -73 69 -112 59 -124 106 -219 140 -280 50 -89 135 -261 135
-272 0 -5 24 -58 53 -119 57 -116 143 -296 157 -329 34 -78 90 -220 90 -226 0
-5 11 -32 24 -61 13 -29 29 -71 36 -93 7 -22 17 -45 22 -51 4 -7 21 -49 37
-95 16 -46 41 -113 56 -149 15 -36 35 -92 45 -125 10 -33 39 -118 64 -190 26
-71 53 -150 61 -175 7 -25 29 -97 49 -160 36 -117 55 -182 79 -280 31 -120 88
-326 97 -345 5 -11 11 -38 15 -60 9 -58 52 -249 74 -330 10 -38 22 -90 26
-115 4 -25 29 -166 57 -315 27 -148 53 -304 58 -345 4 -41 13 -106 19 -145 6
-38 16 -106 21 -150 6 -44 14 -111 19 -150 20 -147 31 -275 37 -410 3 -77 9
-151 14 -165 5 -14 12 -140 15 -280 4 -140 10 -295 13 -345 10 -136 -4 -688
-28 -1073 -11 -188 -23 -348 -25 -355 -3 -6 -14 -100 -26 -207 -41 -377 -47
-426 -68 -528 -12 -56 -21 -117 -21 -133 0 -17 -11 -54 -25 -81 -14 -28 -35
-98 -46 -157 -18 -97 -36 -180 -99 -466 -34 -155 -121 -488 -169 -650 -12 -38
-27 -92 -35 -120 -8 -27 -22 -72 -31 -100 -9 -27 -19 -63 -22 -80 -3 -16 -10
-35 -15 -41 -5 -7 -18 -45 -29 -85 -21 -78 -37 -125 -74 -224 -12 -33 -32 -87
-45 -120 -12 -33 -28 -76 -36 -95 -7 -19 -36 -96 -63 -172 -28 -75 -61 -160
-75 -190 -13 -29 -34 -78 -46 -108 -11 -30 -25 -64 -30 -75 -5 -11 -21 -48
-35 -82 -34 -84 -64 -149 -151 -331 -41 -85 -74 -156 -74 -159 0 -9 -173 -356
-203 -408 -54 -92 -97 -174 -97 -185 0 -6 -11 -26 -25 -44 -14 -18 -25 -37
-25 -43 0 -5 -11 -25 -26 -44 -14 -19 -33 -52 -43 -75 -10 -22 -41 -75 -70
-118 -28 -43 -54 -88 -57 -102 -3 -13 -10 -24 -14 -24 -5 0 -27 -35 -51 -77
-23 -43 -51 -90 -63 -105 -12 -14 -52 -77 -91 -138 -38 -62 -84 -133 -101
-159 -18 -26 -61 -92 -98 -147 -75 -113 -65 -100 -131 -181 -57 -70 -95 -122
-145 -199 -59 -90 -299 -394 -311 -394 -3 0 -19 -20 -35 -45 -15 -25 -31 -45
-35 -45 -4 0 -16 -15 -27 -33 -11 -19 -26 -42 -35 -53 -9 -10 -32 -39 -51 -62
-20 -24 -36 -48 -36 -53 0 -5 -6 -9 -14 -9 -8 0 -35 -26 -59 -57 -25 -32 -59
-71 -77 -88 -18 -16 -45 -49 -61 -72 -16 -23 -38 -45 -49 -48 -11 -4 -26 -17
-33 -30 -27 -51 -388 -423 -612 -630 -77 -71 -129 -120 -271 -256 -22 -21 -45
-39 -51 -39 -5 0 -25 -17 -44 -38 -19 -21 -51 -50 -72 -64 -21 -14 -45 -35
-53 -47 -9 -12 -30 -28 -47 -37 -18 -9 -59 -41 -92 -72 -33 -30 -81 -74 -106
-97 -25 -24 -65 -55 -89 -70 -24 -15 -53 -36 -64 -47 -12 -11 -39 -31 -61 -45
-22 -14 -51 -37 -65 -52 -14 -14 -52 -44 -85 -66 -33 -22 -80 -57 -104 -77
-24 -21 -51 -38 -60 -38 -8 0 -36 -20 -61 -44 -25 -24 -67 -56 -95 -71 -74
-39 -86 -47 -127 -82 -21 -18 -57 -44 -80 -59 -24 -14 -56 -39 -73 -55 -16
-15 -55 -40 -85 -54 -73 -34 -110 -57 -146 -90 -16 -15 -52 -38 -80 -50 -28
-13 -79 -43 -115 -68 -35 -24 -89 -56 -119 -71 -30 -15 -73 -40 -95 -56 -53
-39 -154 -95 -185 -103 -27 -7 -179 -95 -208 -120 -9 -8 -28 -18 -42 -22 -14
-4 -32 -13 -40 -20 -8 -7 -31 -16 -50 -20 -19 -4 -51 -18 -72 -31 -21 -13 -40
-24 -43 -24 -3 0 -40 -20 -83 -44 -42 -25 -89 -48 -105 -52 -15 -3 -36 -17
-46 -30 -10 -13 -28 -24 -40 -24 -12 0 -38 -9 -58 -20 -21 -11 -42 -20 -48
-20 -15 0 -156 -60 -240 -102 -38 -19 -88 -38 -110 -42 -21 -4 -54 -21 -73
-37 -18 -16 -37 -29 -42 -29 -5 0 -16 -13 -25 -29 -14 -29 -14 -30 17 -56 18
-15 46 -33 63 -40 16 -8 48 -21 70 -30 22 -10 81 -37 130 -60 50 -24 100 -46
113 -50 12 -3 22 -10 22 -14 0 -10 40 -26 85 -36 17 -3 41 -17 55 -30 14 -12
43 -28 64 -35 38 -12 147 -61 311 -139 110 -53 153 -71 170 -71 7 0 15 -4 17
-9 3 -7 210 -111 222 -111 2 0 48 -21 103 -46 205 -96 245 -114 255 -114 6 0
33 -13 60 -30 26 -16 54 -30 61 -30 6 -1 37 -14 67 -30 30 -17 63 -30 72 -30
9 0 29 -10 45 -23 15 -13 55 -33 88 -46 33 -12 66 -28 75 -35 8 -7 38 -21 65
-31 28 -9 70 -28 95 -42 25 -14 71 -36 104 -50 32 -13 70 -32 85 -42 14 -10
52 -33 84 -52 42 -24 66 -47 85 -79 14 -25 37 -60 51 -79 23 -33 25 -42 25
-155 1 -105 -2 -126 -21 -161 -21 -39 -100 -136 -117 -144 -5 -2 -17 -12 -27
-22 -10 -10 -31 -21 -46 -25 -16 -3 -51 -15 -79 -26 -46 -18 -59 -19 -133 -9
-45 6 -105 22 -134 36 -30 14 -68 28 -86 31 -18 4 -35 12 -37 19 -3 7 -30 21
-61 30 -31 10 -72 29 -91 41 -19 13 -40 24 -47 24 -7 0 -18 6 -24 13 -6 8 -30
19 -53 26 -23 7 -79 30 -125 52 -46 21 -86 39 -88 39 -3 0 -22 11 -43 23 -20
13 -60 32 -89 41 -28 9 -104 44 -168 77 -64 32 -121 59 -127 59 -5 0 -35 12
-66 26 -77 35 -83 38 -117 57 -47 25 -186 87 -196 87 -5 0 -31 14 -57 30 -27
17 -54 30 -60 30 -7 0 -37 14 -67 30 -30 17 -62 30 -70 30 -8 0 -34 13 -57 30
-22 16 -47 30 -54 30 -8 0 -42 13 -76 29 -55 26 -126 58 -233 106 -16 8 -37
16 -45 19 -8 4 -33 18 -55 31 -52 33 -100 55 -121 55 -9 0 -55 20 -103 44 -47
24 -115 58 -151 74 -36 17 -103 48 -150 71 -47 22 -105 48 -130 56 -25 9 -62
27 -82 40 -21 14 -40 25 -44 25 -3 0 -35 14 -71 30 -35 17 -66 30 -68 30 -11
0 -142 61 -205 95 -14 8 -52 26 -85 41 -33 14 -98 44 -145 66 -103 48 -132 61
-190 84 -25 10 -51 23 -59 28 -8 6 -35 20 -60 31 -126 56 -172 81 -177 97 -3
10 4 35 14 55 11 21 28 56 37 78 10 22 26 60 37 85 11 25 26 59 33 75 7 17 26
60 44 96 17 36 31 70 31 76 0 6 6 16 13 22 8 6 22 37 32 68 11 32 23 64 29 71
21 29 76 147 76 163 0 10 5 21 10 24 11 7 50 88 50 104 0 6 13 32 30 58 17 26
30 52 30 59 0 6 16 44 35 83 19 39 35 73 35 77 0 3 8 18 18 32 10 15 28 52 39
82 35 91 67 163 94 205 13 22 30 58 38 80 16 48 49 121 71 155 9 14 22 44 30
68 7 23 19 47 26 53 7 6 16 24 19 40 4 16 11 31 16 34 5 4 9 13 9 22 0 9 20
58 45 109 25 50 45 96 45 102 0 5 7 15 15 22 8 7 15 25 15 40 0 15 9 35 20 45
10 9 24 34 31 54 6 20 26 61 44 91 18 30 38 73 44 95 6 22 18 49 26 59 8 11
15 27 15 37 0 9 21 57 46 105 25 49 55 112 66 139 11 28 26 57 34 65 7 9 20
34 28 55 7 22 35 83 60 135 25 52 46 100 46 106 0 6 16 41 36 78 19 37 58 120
85 184 28 65 65 149 84 187 18 39 57 120 85 180 55 118 62 132 106 211 35 61
114 154 132 154 7 0 29 8 50 19 20 10 67 26 104 36 62 16 71 16 135 2 72 -16
145 -50 180 -83 12 -10 32 -29 44 -40 38 -35 86 -143 98 -219 13 -92 -1 -160
-66 -305 -16 -36 -38 -85 -48 -110 -10 -25 -23 -51 -28 -57 -13 -18 -65 -128
-88 -188 -11 -27 -40 -90 -64 -140 -24 -49 -51 -108 -61 -130 -19 -45 -62
-134 -86 -180 -9 -16 -31 -64 -48 -105 -17 -41 -36 -82 -41 -90 -5 -8 -19 -35
-30 -60 -11 -25 -33 -73 -50 -107 -16 -35 -29 -65 -29 -68 0 -3 -32 -72 -71
-153 -39 -81 -77 -164 -85 -185 -7 -21 -23 -51 -34 -67 -11 -15 -23 -42 -26
-59 -4 -17 -13 -36 -20 -42 -8 -6 -14 -25 -14 -41 0 -16 -6 -31 -14 -34 -8 -3
-27 -37 -41 -74 -15 -38 -34 -79 -44 -92 -10 -13 -28 -49 -39 -80 -12 -32 -26
-66 -31 -75 -4 -10 -23 -49 -41 -88 -18 -38 -36 -77 -41 -85 -5 -8 -14 -26
-21 -40 -6 -14 -34 -72 -61 -130 -125 -263 -154 -341 -143 -384 9 -37 49 -44
100 -18 23 11 56 26 74 32 17 7 32 16 32 21 0 4 21 15 48 22 67 21 245 96 332
142 25 13 66 29 92 35 26 7 54 21 64 31 9 10 24 19 33 19 14 0 201 91 345 167
22 12 64 29 91 39 51 17 92 39 110 58 19 20 110 72 219 124 59 29 125 65 145
81 20 16 76 50 125 75 49 25 96 52 105 60 9 8 47 31 85 51 80 42 181 109 193
128 4 6 30 23 57 37 26 14 67 41 90 61 22 19 56 42 74 50 17 8 32 19 32 26 0
6 14 14 31 18 17 4 40 18 52 32 12 13 45 38 74 54 29 17 65 43 80 60 15 16 53
43 83 60 30 17 71 46 90 63 19 18 53 43 75 55 39 22 71 49 193 157 31 28 66
54 77 58 12 3 38 25 60 47 21 23 63 59 92 80 29 22 53 44 53 49 0 6 13 18 28
28 35 21 122 93 177 147 22 22 76 72 120 110 43 39 95 87 114 108 20 20 42 37
48 37 6 0 22 14 35 31 20 27 145 154 250 255 18 17 65 67 103 110 39 42 83 89
99 103 35 31 44 40 149 159 45 51 89 106 97 122 8 16 20 30 26 30 11 0 133
148 169 204 11 18 28 41 38 51 29 32 151 187 171 219 10 16 53 67 95 115 42
47 92 109 111 136 18 28 47 66 64 87 45 53 89 116 120 173 16 27 37 60 47 74
10 13 19 28 19 33 0 6 15 28 33 51 34 43 70 98 86 132 11 24 189 295 226 344
14 19 25 43 25 53 0 10 6 21 14 24 16 6 136 207 136 228 0 8 4 17 8 20 4 2 25
40 47 83 21 43 44 85 51 93 6 8 29 53 50 100 20 47 48 99 60 116 13 17 26 44
30 60 4 16 12 36 19 44 7 8 29 49 50 90 20 41 43 82 51 91 8 8 14 20 14 25 0
5 12 31 26 58 15 28 40 82 56 120 16 39 37 87 47 106 10 19 24 52 31 73 7 22
18 51 26 65 8 15 14 36 14 47 0 11 6 29 13 40 7 11 26 52 42 90 15 39 36 88
45 110 9 22 23 56 30 75 16 42 77 193 96 237 8 17 14 36 14 42 0 6 14 38 30
71 17 33 30 70 30 83 0 13 4 27 8 33 5 5 19 47 31 94 13 47 40 137 61 201 21
64 41 138 45 165 4 27 13 63 20 79 6 17 23 68 38 115 14 47 41 137 61 200 34
113 116 495 116 545 0 14 9 58 19 98 11 39 22 101 26 137 3 36 11 79 16 96 16
53 58 309 84 514 14 107 32 242 40 300 8 58 19 159 25 225 9 114 12 176 30
592 10 225 5 757 -9 973 -5 91 -15 257 -21 370 -6 113 -18 252 -25 310 -8 58
-19 150 -25 205 -25 213 -63 467 -85 560 -10 39 -21 104 -25 147 -4 42 -13 91
-19 110 -6 18 -20 87 -31 153 -12 66 -30 152 -41 190 -19 68 -31 118 -82 335
-26 111 -101 362 -194 645 -30 94 -61 196 -69 228 -8 32 -21 72 -31 90 -9 18
-20 46 -24 62 -12 47 -64 183 -97 255 -16 36 -46 108 -66 160 -20 52 -45 113
-56 135 -10 22 -38 85 -61 140 -23 55 -61 143 -84 195 -23 52 -48 111 -56 130
-7 19 -40 86 -74 148 -75 140 -108 204 -134 262 -11 25 -35 72 -54 105 -18 33
-44 80 -58 105 -14 25 -36 63 -50 85 -14 22 -52 89 -84 149 -32 60 -66 117
-75 126 -8 8 -26 36 -39 60 -49 95 -131 228 -182 295 -29 39 -74 109 -100 157
-49 89 -155 238 -170 238 -4 0 -10 8 -13 18 -3 10 -29 47 -56 82 -28 36 -75
101 -106 145 -46 68 -90 128 -169 230 -39 51 -122 155 -169 211 -84 100 -104
126 -158 197 -28 37 -55 67 -60 67 -4 0 -16 13 -26 28 -34 57 -399 435 -461
478 -12 9 -21 21 -21 27 0 7 -21 33 -46 57 -93 91 -203 239 -220 297 -20 69
-19 168 1 224 9 24 19 55 22 69 7 29 54 94 92 128 66 58 193 100 307 101 62 1
79 -4 150 -38z"/>
<path d="M15265 21927 c-11 -16 -15 -48 -15 -124 0 -94 -2 -103 -22 -117 -16
-11 -18 -16 -7 -16 31 0 39 23 39 116 0 140 20 172 71 117 19 -22 406 -400
686 -670 24 -24 43 -51 43 -63 0 -24 -56 -86 -391 -425 -125 -126 -256 -260
-291 -297 -64 -68 -91 -82 -102 -52 -3 9 -6 62 -6 119 0 96 -2 105 -22 119
-20 14 -88 16 -540 16 -456 0 -518 -2 -532 -16 -14 -13 -16 -58 -16 -334 0
-244 3 -321 13 -327 6 -4 311 -10 677 -13 l665 -5 0 -500 0 -499 -25 -7 c-21
-6 -22 -7 -5 -8 45 -2 45 -2 45 515 0 407 -2 494 -14 503 -10 8 -188 11 -666
11 -473 0 -656 3 -666 11 -19 16 -21 628 -2 647 9 9 140 12 528 12 480 0 518
-1 532 -17 11 -13 15 -47 16 -127 3 -161 18 -170 119 -67 628 636 693 705 693
738 0 35 2 32 -390 413 -173 168 -326 317 -340 331 -37 37 -57 42 -75 16z"/>
<path d="M6662 21668 c-17 -17 -17 -4409 0 -4426 17 -17 989 -17 1006 0 7 7
12 21 11 33 -1 17 -2 16 -8 -5 l-7 -25 -499 0 -500 0 0 2210 0 2210 30 6 c28
6 28 7 5 8 -15 0 -31 -4 -38 -11z"/>
<path d="M10160 21665 c-6 -8 -10 -20 -7 -27 3 -8 6 -6 6 5 1 10 11 22 24 27
15 6 17 9 6 9 -9 1 -22 -6 -29 -14z"/>
<path d="M11120 21676 c0 -2 11 -6 25 -8 13 -3 22 -1 19 3 -5 9 -44 13 -44 5z"/>
<path d="M19627 21673 c-13 -12 -7 -26 6 -15 6 5 23 12 37 15 22 4 21 4 -6 6
-17 0 -34 -2 -37 -6z"/>
<path d="M22640 21675 c0 -3 11 -10 24 -15 18 -6 26 -18 29 -42 l4 -33 1 32
c2 23 -4 36 -20 47 -23 16 -38 20 -38 11z"/>
<path d="M22957 21662 c-16 -17 -17 -77 -16 -673 1 -360 4 -681 8 -714 3 -33
5 263 3 658 l-4 717 34 15 c25 11 28 14 12 15 -11 0 -28 -8 -37 -18z"/>
<path d="M23930 21676 c0 -2 9 -6 20 -9 11 -3 18 -1 14 4 -5 9 -34 13 -34 5z"/>
<path d="M25166 21664 c-14 -14 -16 -84 -14 -642 l3 -627 2 628 3 628 33 14
c26 12 28 14 10 15 -12 0 -29 -7 -37 -16z"/>
<path d="M26145 21673 c11 -3 26 -10 34 -17 11 -9 13 -8 9 4 -2 8 -18 16 -34
17 -18 1 -22 0 -9 -4z"/>
<path d="M8443 21663 c20 -2 54 -2 75 0 20 2 3 4 -38 4 -41 0 -58 -2 -37 -4z"/>
<path d="M17577 21663 c18 -2 50 -2 70 0 21 2 7 4 -32 4 -38 0 -55 -2 -38 -4z"/>
<path d="M17873 21663 c15 -2 39 -2 55 0 15 2 2 4 -28 4 -30 0 -43 -2 -27 -4z"/>
<path d="M8665 21649 c22 -4 51 -8 65 -7 16 0 11 3 -15 9 -22 4 -51 8 -65 7
-16 0 -11 -3 15 -9z"/>
<path d="M17395 21650 c-27 -7 -27 -8 -5 -8 14 0 39 4 55 8 27 7 27 8 5 8 -14
0 -38 -4 -55 -8z"/>
<path d="M18038 21653 c12 -2 30 -2 40 0 9 3 -1 5 -23 4 -22 0 -30 -2 -17 -4z"/>
<path d="M11172 19977 c-1 -1142 1 -1684 8 -1698 10 -19 28 -19 778 -17 l767
3 -761 2 c-623 3 -764 6 -773 17 -8 9 -12 476 -14 1692 l-2 1679 -3 -1678z"/>
<path d="M13135 19455 c0 -1210 1 -1704 2 -1097 2 607 2 1597 0 2200 -1 603
-2 107 -2 -1103z"/>
<path d="M18108 21643 c6 -2 18 -2 25 0 6 3 1 5 -13 5 -14 0 -19 -2 -12 -5z"/>
<path d="M23975 21025 c0 -346 1 -487 2 -312 2 175 2 459 0 630 -1 172 -2 29
-2 -318z"/>
<path d="M8773 21633 c9 -2 25 -2 35 0 9 3 1 5 -18 5 -19 0 -27 -2 -17 -5z"/>
<path d="M17298 21633 c12 -2 32 -2 45 0 12 2 2 4 -23 4 -25 0 -35 -2 -22 -4z"/>
<path d="M18173 21633 c9 -2 25 -2 35 0 9 3 1 5 -18 5 -19 0 -27 -2 -17 -5z"/>
<path d="M8879 21615 c18 -8 38 -15 45 -15 6 1 -4 7 -23 15 -18 8 -38 15 -45
15 -6 -1 4 -7 23 -15z"/>
<path d="M17200 21614 c-21 -8 -27 -13 -15 -13 11 0 36 7 55 14 21 8 27 13 15
13 -11 0 -36 -6 -55 -14z"/>
<path d="M18260 21620 c8 -5 22 -9 30 -9 10 0 8 3 -5 9 -27 12 -43 12 -25 0z"/>
<path d="M18318 21603 c7 -3 16 -2 19 1 4 3 -2 6 -13 5 -11 0 -14 -3 -6 -6z"/>
<path d="M8958 21593 c6 -2 18 -2 25 0 6 3 1 5 -13 5 -14 0 -19 -2 -12 -5z"/>
<path d="M10152 21580 c0 -14 2 -19 5 -12 2 6 2 18 0 25 -3 6 -5 1 -5 -13z"/>
<path d="M17090 21585 c-47 -18 -27 -18 30 -1 25 8 36 15 25 15 -11 0 -36 -7
-55 -14z"/>
<path d="M18390 21585 c24 -8 46 -13 48 -11 5 5 -59 26 -77 25 -9 0 4 -7 29
-14z"/>
<path d="M9008 21578 c5 -5 16 -8 23 -6 8 3 3 7 -10 11 -17 4 -21 3 -13 -5z"/>
<path d="M9070 21555 c14 -8 30 -14 35 -14 6 0 -1 6 -15 14 -14 8 -29 14 -35
14 -5 0 1 -6 15 -14z"/>
<path d="M17005 21555 c-16 -8 -23 -14 -15 -14 8 0 26 6 40 14 32 18 15 18
-25 0z"/>
<path d="M18525 21534 c44 -20 94 -42 112 -50 17 -7 34 -18 38 -24 3 -5 11
-10 17 -10 29 0 -79 60 -186 104 -74 31 -60 15 19 -20z"/>
<path d="M22692 21530 c0 -19 2 -27 5 -17 2 9 2 25 0 35 -3 9 -5 1 -5 -18z"/>
<path d="M9171 21513 c29 -14 62 -30 72 -35 9 -5 17 -6 17 -3 0 7 -117 65
-132 65 -6 0 13 -12 43 -27z"/>
<path d="M16878 21499 c-43 -21 -78 -41 -78 -44 0 -5 159 72 169 81 14 13 -25
-2 -91 -37z"/>
<path d="M9270 21467 c0 -2 30 -23 68 -48 141 -93 292 -262 371 -417 12 -23
24 -42 26 -42 18 0 -107 198 -175 278 -57 67 -199 184 -267 221 -13 6 -23 10
-23 8z"/>
<path d="M22695 21065 c0 -220 1 -309 2 -197 2 112 2 292 0 400 -1 108 -2 17
-2 -203z"/>
<path d="M18786 21392 c43 -33 104 -82 134 -110 30 -29 57 -52 60 -52 20 2
-245 220 -266 220 -4 0 28 -26 72 -58z"/>
<path d="M16710 21402 c-72 -49 -271 -246 -298 -297 -14 -25 -16 -32 -5 -17
96 125 210 238 317 311 25 18 46 34 46 36 0 7 -1 7 -60 -33z"/>
<path d="M19019 21175 c6 -11 22 -33 37 -50 14 -16 21 -21 15 -10 -5 11 -22
34 -36 50 -14 17 -21 21 -16 10z"/>
<path d="M19122 21021 c23 -38 44 -69 46 -67 4 5 -68 125 -79 132 -5 3 10 -26
33 -65z"/>
<path d="M16350 21015 c-7 -9 -10 -18 -7 -21 3 -3 10 4 17 15 13 25 8 27 -10
6z"/>
<path d="M16310 20939 c-7 -11 -10 -23 -7 -25 2 -2 9 7 15 21 14 30 7 33 -8 4z"/>
<path d="M9741 20948 c-1 -12 31 -89 35 -85 3 2 -4 24 -15 48 -11 24 -20 41
-20 37z"/>
<path d="M19170 20938 c0 -3 13 -35 30 -70 16 -34 30 -56 30 -48 -1 15 -59
131 -60 118z"/>
<path d="M16282 20880 c-18 -29 -15 -38 4 -12 9 13 14 25 12 27 -2 2 -9 -5
-16 -15z"/>
<path d="M9781 20845 c1 -19 18 -51 18 -35 0 8 -4 22 -9 30 -5 8 -9 11 -9 5z"/>
<path d="M16261 20833 c-1 -6 -4 -20 -7 -30 -5 -17 -5 -17 6 0 6 10 9 23 6 30
-3 9 -5 9 -5 0z"/>
<path d="M9801 20780 c0 -8 4 -24 9 -35 5 -13 9 -14 9 -5 0 8 -4 24 -9 35 -5
13 -9 14 -9 5z"/>
<path d="M19246 20757 c3 -10 9 -15 12 -12 3 3 0 11 -7 18 -10 9 -11 8 -5 -6z"/>
<path d="M16222 20727 c-17 -47 -14 -59 4 -18 8 19 13 39 12 43 -2 5 -9 -6
-16 -25z"/>
<path d="M9820 20720 c0 -3 7 -30 15 -60 8 -30 15 -68 16 -85 1 -21 3 -24 6
-10 6 21 -14 120 -28 145 -5 8 -8 13 -9 10z"/>
<path d="M19266 20695 c8 -37 14 -45 14 -19 0 10 -5 26 -10 34 -8 11 -9 7 -4
-15z"/>
<path d="M19627 20648 c2 -5 227 -8 498 -8 478 0 495 -1 505 -19 7 -13 10
-559 10 -1693 0 -1289 3 -1677 12 -1686 17 -17 989 -17 1006 0 9 9 11 397 10
1698 l-3 1685 -5 -1690 -5 -1690 -500 0 -500 0 -5 1692 c-3 930 -9 1695 -13
1700 -11 10 -1017 21 -1010 11z"/>
<path d="M22183 20650 c-276 -3 -504 -7 -506 -10 -3 -3 220 -4 496 -2 305 2
506 7 511 12 6 6 8 9 6 8 -3 -2 -231 -5 -507 -8z"/>
<path d="M7690 20630 c-19 -19 -20 -32 -18 -467 l3 -448 2 444 c3 395 5 447
20 463 15 16 42 18 342 21 l326 2 -327 3 c-316 2 -329 1 -348 -18z"/>
<path d="M16192 20617 c-17 -47 -14 -59 4 -18 8 19 13 39 12 43 -2 5 -9 -6
-16 -25z"/>
<path d="M17738 20643 c6 -2 18 -2 25 0 6 3 1 5 -13 5 -14 0 -19 -2 -12 -5z"/>
<path d="M19281 20634 c0 -11 3 -14 6 -6 3 7 2 16 -1 19 -3 4 -6 -2 -5 -13z"/>
<path d="M8388 20633 c12 -2 32 -2 45 0 12 2 2 4 -23 4 -25 0 -35 -2 -22 -4z"/>
<path d="M17630 20630 c-27 -6 -29 -8 -10 -8 14 -1 43 3 65 7 33 7 35 9 10 9
-16 -1 -46 -4 -65 -8z"/>
<path d="M17781 20636 c2 -2 33 -6 69 -9 41 -3 54 -2 35 3 -31 8 -112 13 -104
6z"/>
<path d="M8473 20623 c9 -2 25 -2 35 0 9 3 1 5 -18 5 -19 0 -27 -2 -17 -5z"/>
<path d="M8555 20611 c36 -9 131 -57 140 -70 3 -6 20 -20 38 -32 30 -20 29
-19 -6 15 -45 43 -146 96 -179 95 -19 -1 -17 -2 7 -8z"/>
<path d="M17515 20610 c-3 -6 1 -7 9 -4 18 7 21 14 7 14 -6 0 -13 -4 -16 -10z"/>
<path d="M17960 20611 c20 -4 42 -11 50 -15 8 -4 6 0 -4 8 -11 9 -34 15 -50
15 -31 -1 -31 -1 4 -8z"/>
<path d="M17418 20568 c-20 -11 -60 -43 -90 -71 -58 -55 -38 -45 29 15 23 20
58 44 77 52 20 8 36 17 36 20 0 10 -13 5 -52 -16z"/>
<path d="M18076 20560 c28 -16 77 -57 109 -92 32 -35 49 -49 38 -33 -29 42
-113 119 -151 139 -53 27 -50 17 4 -14z"/>
<path d="M19301 20564 c0 -11 3 -14 6 -6 3 7 2 16 -1 19 -3 4 -6 -2 -5 -13z"/>
<path d="M16167 20515 c-9 -58 -17 -123 -11 -100 2 11 9 36 15 56 6 19 9 46 7
60 -3 19 -5 16 -11 -16z"/>
<path d="M19312 20515 c0 -16 2 -22 5 -12 2 9 2 23 0 30 -3 6 -5 -1 -5 -18z"/>
<path d="M9866 20495 c3 -16 9 -59 13 -95 l8 -65 1 55 c1 30 -5 73 -14 95 -10
28 -13 31 -8 10z"/>
<path d="M8760 20476 c0 -2 8 -10 18 -17 15 -13 16 -12 3 4 -13 16 -21 21 -21
13z"/>
<path d="M19322 20435 c0 -16 2 -22 5 -12 2 9 2 23 0 30 -3 6 -5 -1 -5 -18z"/>
<path d="M8790 20435 c0 -6 4 -15 10 -21 5 -5 16 -27 25 -49 12 -31 14 -33 9
-10 -6 30 -44 99 -44 80z"/>
<path d="M17253 20407 c-12 -18 -25 -41 -28 -52 -3 -11 1 -6 11 10 9 17 23 38
32 48 8 9 13 19 11 21 -2 3 -14 -10 -26 -27z"/>
<path d="M19337 20365 c3 -22 7 -42 9 -44 8 -9 2 45 -6 64 -7 14 -8 8 -3 -20z"/>
<path d="M18261 20350 c14 -31 19 -36 19 -24 0 6 -7 19 -16 30 -14 18 -14 18
-3 -6z"/>
<path d="M16142 20340 c0 -14 2 -19 5 -12 2 6 2 18 0 25 -3 6 -5 1 -5 -13z"/>
<path d="M23981 20344 c0 -11 3 -14 6 -6 3 7 2 16 -1 19 -3 4 -6 -2 -5 -13z"/>
<path d="M25141 20338 c0 -9 -4 -25 -7 -35 -5 -17 -5 -17 6 0 6 10 9 25 7 35
-4 15 -5 15 -6 0z"/>
<path d="M17205 20319 c-4 -6 -5 -12 -2 -15 2 -3 7 2 10 11 7 17 1 20 -8 4z"/>
<path d="M8841 20304 c0 -11 3 -14 6 -6 3 7 2 16 -1 19 -3 4 -6 -2 -5 -13z"/>
<path d="M23991 20304 c0 -11 3 -14 6 -6 3 7 2 16 -1 19 -3 4 -6 -2 -5 -13z"/>
<path d="M26180 20273 c-3 -29 -1 -48 3 -44 5 5 7 28 5 52 l-3 44 -5 -52z"/>
<path d="M16126 20249 c-4 -28 -5 -53 -3 -56 3 -2 8 19 12 47 4 28 5 53 2 56
-2 3 -7 -19 -11 -47z"/>
<path d="M17192 20270 c0 -14 2 -19 5 -12 2 6 2 18 0 25 -3 6 -5 1 -5 -13z"/>
<path d="M18291 20264 c0 -11 3 -14 6 -6 3 7 2 16 -1 19 -3 4 -6 -2 -5 -13z"/>
<path d="M8852 20245 c0 -16 2 -22 5 -12 2 9 2 23 0 30 -3 6 -5 -1 -5 -18z"/>
<path d="M24001 20254 c0 -11 3 -14 6 -6 3 7 2 16 -1 19 -3 4 -6 -2 -5 -13z"/>
<path d="M17176 20225 c-3 -9 -6 -22 -5 -28 0 -7 5 -1 10 12 5 13 8 26 5 28
-2 2 -6 -3 -10 -12z"/>
<path d="M19351 20224 c0 -11 3 -14 6 -6 3 7 2 16 -1 19 -3 4 -6 -2 -5 -13z"/>
<path d="M24016 20217 c3 -10 9 -15 12 -12 3 3 0 11 -7 18 -10 9 -11 8 -5 -6z"/>
<path d="M25101 20203 c-10 -26 -10 -27 4 -9 8 11 15 23 15 28 0 15 -7 8 -19
-19z"/>
<path d="M8857 20103 c-4 -60 -13 -130 -21 -158 -9 -27 -13 -51 -11 -53 2 -2
11 20 20 50 15 50 34 268 23 268 -3 0 -8 -48 -11 -107z"/>
<path d="M24030 20184 c0 -5 14 -25 31 -44 l30 -35 -27 40 c-16 22 -29 42 -31
44 -2 2 -3 0 -3 -5z"/>
<path d="M17162 20160 c0 -14 2 -19 5 -12 2 6 2 18 0 25 -3 6 -5 1 -5 -13z"/>
<path d="M18311 20164 c0 -11 3 -14 6 -6 3 7 2 16 -1 19 -3 4 -6 -2 -5 -13z"/>
<path d="M19362 18719 c-2 -1216 -4 -1458 -16 -1468 -9 -8 -149 -10 -502 -9
l-488 3 -13 25 c-7 14 -13 19 -13 12 0 -7 5 -22 10 -33 10 -18 27 -19 503 -19
379 0 497 3 510 13 16 11 17 108 15 1472 l-3 1460 -3 -1456z"/>
<path d="M25070 20150 c-6 -11 -8 -20 -6 -20 3 0 10 9 16 20 6 11 8 20 6 20
-3 0 -10 -9 -16 -20z"/>
<path d="M26162 20130 c0 -19 2 -27 5 -17 2 9 2 25 0 35 -3 9 -5 1 -5 -18z"/>
<path d="M18321 20124 c0 -11 3 -14 6 -6 3 7 2 16 -1 19 -3 4 -6 -2 -5 -13z"/>
<path d="M22962 20100 c0 -14 2 -19 5 -12 2 6 2 18 0 25 -3 6 -5 1 -5 -13z"/>
<path d="M25024 20095 c-16 -14 -44 -35 -62 -47 -18 -11 -31 -23 -28 -25 6 -6
96 58 116 82 19 23 6 18 -26 -10z"/>
<path d="M17152 18688 c-2 -1400 -2 -1427 -21 -1438 -31 -16 -983 -14 -1001 3
-12 10 -12 9 -1 -5 13 -17 48 -18 501 -18 450 0 489 1 509 18 l21 17 -2 1425
-3 1425 -3 -1427z"/>
<path d="M18333 20045 c0 -33 2 -45 4 -27 2 18 2 45 0 60 -2 15 -4 0 -4 -33z"/>
<path d="M24094 20092 c8 -14 97 -72 109 -72 9 0 -15 17 -87 64 -16 10 -26 14
-22 8z"/>
<path d="M22971 20035 c0 -11 4 -27 9 -35 9 -13 10 -13 9 0 0 8 -4 24 -9 35
l-9 20 0 -20z"/>
<path d="M26151 20028 c0 -14 -4 -35 -7 -45 -5 -17 -5 -17 6 0 6 10 9 30 7 45
l-4 27 -2 -27z"/>
<path d="M24236 20005 c10 -8 23 -15 28 -15 6 0 1 7 -10 15 -10 8 -23 15 -28
15 -6 0 -1 -7 10 -15z"/>
<path d="M24880 20005 c-14 -8 -20 -14 -15 -14 6 0 21 6 35 14 14 8 21 14 15
14 -5 0 -21 -6 -35 -14z"/>
<path d="M24308 19983 c6 -2 18 -2 25 0 6 3 1 5 -13 5 -14 0 -19 -2 -12 -5z"/>
<path d="M24808 19983 c7 -3 16 -2 19 1 4 3 -2 6 -13 5 -11 0 -14 -3 -6 -6z"/>
<path d="M24368 19973 c12 -2 30 -2 40 0 9 3 -1 5 -23 4 -22 0 -30 -2 -17 -4z"/>
<path d="M24575 19970 l-150 -6 145 -1 c80 0 159 3 175 7 26 7 26 8 5 7 -14
-1 -92 -4 -175 -7z"/>
<path d="M22992 19950 c0 -14 2 -19 5 -12 2 6 2 18 0 25 -3 6 -5 1 -5 -13z"/>
<path d="M26132 19930 c0 -14 2 -19 5 -12 2 6 2 18 0 25 -3 6 -5 1 -5 -13z"/>
<path d="M9883 19875 c0 -22 2 -30 4 -17 2 12 2 30 0 40 -3 9 -5 -1 -4 -23z"/>
<path d="M23001 19900 c0 -8 4 -24 9 -35 5 -13 9 -14 9 -5 0 8 -4 24 -9 35 -5
13 -9 14 -9 5z"/>
<path d="M26116 19874 c-4 -14 -5 -28 -3 -31 3 -2 8 8 11 23 4 14 5 28 3 31
-3 2 -8 -8 -11 -23z"/>
<path d="M8798 19848 c-27 -56 -87 -116 -151 -153 -66 -37 -72 -48 -9 -16 61
31 113 78 148 133 31 47 40 68 31 68 -2 0 -10 -15 -19 -32z"/>
<path d="M23021 19830 c1 -22 27 -88 28 -69 1 9 -6 32 -14 50 -8 19 -14 27
-14 19z"/>
<path d="M9866 19789 c-4 -23 -5 -44 -2 -46 2 -2 7 14 11 37 4 23 5 43 2 46
-2 3 -7 -14 -11 -37z"/>
<path d="M26101 19814 c0 -11 3 -14 6 -6 3 7 2 16 -1 19 -3 4 -6 -2 -5 -13z"/>
<path d="M26088 19767 c-3 -19 -2 -25 4 -19 6 6 8 18 6 28 -3 14 -5 12 -10 -9z"/>
<path d="M9848 19680 c-4 -30 -10 -66 -13 -80 -2 -14 2 -5 10 20 9 25 14 61
13 80 -3 29 -4 26 -10 -20z"/>
<path d="M7676 19694 c-10 -26 5 -64 28 -69 11 -3 179 -4 371 -3 l350 3 -362
3 c-353 2 -363 3 -373 22 -6 12 -8 30 -5 40 8 24 0 27 -9 4z"/>
<path d="M23060 19701 c0 -6 4 -13 10 -16 6 -3 7 1 4 9 -7 18 -14 21 -14 7z"/>
<path d="M26056 19683 c-6 -14 -5 -15 5 -6 7 7 10 15 7 18 -3 3 -9 -2 -12 -12z"/>
<path d="M8528 19655 c-3 -3 -25 -10 -49 -15 l-44 -9 40 4 c22 2 56 8 75 13
31 9 32 10 9 11 -14 1 -28 -1 -31 -4z"/>
<path d="M23090 19631 c0 -5 5 -13 10 -16 6 -3 10 -2 10 4 0 5 -4 13 -10 16
-5 3 -10 2 -10 -4z"/>
<path d="M26015 19589 c-4 -6 -5 -12 -2 -15 2 -3 7 2 10 11 7 17 1 20 -8 4z"/>
<path d="M9821 19554 c0 -11 3 -14 6 -6 3 7 2 16 -1 19 -3 4 -6 -2 -5 -13z"/>
<path d="M25990 19540 c-6 -11 -8 -20 -6 -20 3 0 10 9 16 20 6 11 8 20 6 20
-3 0 -10 -9 -16 -20z"/>
<path d="M9811 19523 c-1 -6 -4 -20 -7 -30 -5 -17 -5 -17 6 0 6 10 9 23 6 30
-3 9 -5 9 -5 0z"/>
<path d="M23200 19437 c49 -72 131 -167 145 -167 4 0 -16 25 -45 57 -28 31
-69 82 -91 114 -21 32 -44 61 -49 64 -6 4 12 -27 40 -68z"/>
<path d="M25947 19465 c-14 -25 -24 -45 -22 -45 7 0 57 81 53 85 -2 2 -16 -16
-31 -40z"/>
<path d="M9775 19419 c-4 -6 -5 -12 -2 -15 2 -3 7 2 10 11 7 17 1 20 -8 4z"/>
<path d="M25899 19393 c-13 -16 -12 -17 4 -4 9 7 17 15 17 17 0 8 -8 3 -21
-13z"/>
<path d="M25869 19353 c-13 -16 -12 -17 4 -4 9 7 17 15 17 17 0 8 -8 3 -21
-13z"/>
<path d="M9746 19345 c-9 -26 -7 -32 5 -12 6 10 9 21 6 23 -2 3 -7 -2 -11 -11z"/>
<path d="M25810 19284 c-67 -70 -195 -162 -284 -205 -44 -22 -74 -39 -68 -39
23 0 136 62 212 116 64 45 204 174 189 174 -3 0 -25 -21 -49 -46z"/>
<path d="M9717 19281 c-9 -16 -17 -33 -17 -38 0 -4 9 7 21 26 11 18 18 35 17
37 -2 2 -12 -10 -21 -25z"/>
<path d="M23380 19231 c71 -62 236 -168 246 -158 3 2 -8 10 -24 16 -15 6 -64
37 -109 69 -45 31 -96 68 -115 80 l-33 24 35 -31z"/>
<path d="M9645 19158 c-69 -104 -126 -169 -208 -234 -84 -67 -98 -80 -77 -69
38 20 155 123 198 174 56 64 150 201 139 201 -2 0 -26 -33 -52 -72z"/>
<path d="M23656 19055 c10 -8 26 -14 34 -15 8 0 2 7 -14 15 -36 19 -45 19 -20
0z"/>
<path d="M23730 19025 c14 -8 30 -14 35 -14 6 0 -1 6 -15 14 -14 8 -29 14 -35
14 -5 0 1 -6 15 -14z"/>
<path d="M25410 19025 c-14 -8 -20 -14 -14 -15 5 0 19 7 30 15 24 18 16 19
-16 0z"/>
<path d="M23810 18995 c46 -18 64 -17 25 0 -16 8 -37 14 -45 14 -8 0 1 -7 20
-14z"/>
<path d="M25325 18995 c-39 -17 -21 -18 25 0 19 7 28 14 20 14 -8 0 -28 -6
-45 -14z"/>
<path d="M25210 18964 c-30 -8 -36 -12 -20 -12 14 0 41 6 60 13 44 17 20 17
-40 -1z"/>
<path d="M23930 18960 c8 -5 28 -10 44 -10 39 0 30 6 -19 13 -27 4 -35 3 -25
-3z"/>
<path d="M14233 18943 c15 -2 37 -2 50 0 12 2 0 4 -28 4 -27 0 -38 -2 -22 -4z"/>
<path d="M14603 18943 c136 -2 358 -2 495 0 136 1 24 2 -248 2 -272 0 -384 -1
-247 -2z"/>
<path d="M15398 18943 c12 -2 32 -2 45 0 12 2 2 4 -23 4 -25 0 -35 -2 -22 -4z"/>
<path d="M24042 18944 c12 -4 18 -19 21 -52 l4 -47 -1 50 c-1 42 -4 50 -21 52
-15 1 -15 0 -3 -3z"/>
<path d="M25106 18941 c-3 -4 6 -6 19 -3 14 2 25 6 25 8 0 8 -39 4 -44 -5z"/>
<path d="M14167 18933 c-4 -3 -7 -151 -7 -328 0 -271 2 -324 15 -335 8 -6 20
-10 27 -7 9 4 7 6 -3 6 -9 1 -20 8 -23 17 -3 9 -6 154 -6 323 0 225 3 310 12
319 7 7 8 12 2 12 -6 0 -14 -3 -17 -7z"/>
<path d="M25092 18900 c0 -14 2 -19 5 -12 2 6 2 18 0 25 -3 6 -5 1 -5 -13z"/>
<path d="M25092 18845 c0 -16 2 -22 5 -12 2 9 2 23 0 30 -3 6 -5 -1 -5 -18z"/>
<path d="M9300 18825 c-19 -14 -30 -25 -25 -25 6 0 24 11 40 25 39 31 30 31
-15 0z"/>
<path d="M24063 18055 c-2 -485 1 -796 7 -805 8 -13 77 -15 506 -18 363 -2
500 1 510 9 8 6 14 21 13 33 -1 19 -2 18 -8 -4 l-7 -25 -487 -3 c-324 -1 -494
1 -507 8 -19 10 -20 30 -23 803 l-2 792 -2 -790z"/>
<path d="M9236 18785 c-11 -8 -15 -15 -9 -15 6 0 16 7 23 15 16 19 11 19 -14
0z"/>
<path d="M25095 18050 c0 -415 1 -585 2 -377 2 207 2 547 0 755 -1 207 -2 37
-2 -378z"/>
<path d="M9150 18745 c-14 -8 -20 -14 -14 -15 5 0 19 7 30 15 24 18 16 19 -16
0z"/>
<path d="M9090 18720 c-8 -5 -10 -10 -5 -10 6 0 17 5 25 10 8 5 11 10 5 10 -5
0 -17 -5 -25 -10z"/>
<path d="M9006 18691 c-4 -5 3 -7 14 -4 23 6 26 13 6 13 -8 0 -17 -4 -20 -9z"/>
<path d="M8890 18659 c-60 -21 -26 -18 55 5 28 8 39 14 25 14 -14 0 -50 -9
-80 -19z"/>
<path d="M8735 18630 c-42 -11 -1 -11 50 -1 34 7 35 9 10 9 -16 0 -43 -4 -60
-8z"/>
<path d="M8628 18613 c12 -2 30 -2 40 0 9 3 -1 5 -23 4 -22 0 -30 -2 -17 -4z"/>
<path d="M8400 18600 l-125 -6 115 -1 c63 -1 133 2 155 6 46 10 44 10 -145 1z"/>
<path d="M7692 18584 l-22 -15 2 -637 3 -637 5 637 c3 350 7 638 10 641 3 2
14 9 25 15 11 6 15 12 10 12 -6 0 -21 -7 -33 -16z"/>
<path d="M7758 18593 c6 -2 18 -2 25 0 6 3 1 5 -13 5 -14 0 -19 -2 -12 -5z"/>
<path d="M12800 18261 c58 -5 65 -8 71 -31 6 -21 7 -22 8 -4 2 34 -19 44 -83
42 l-61 -1 65 -6z"/>
<path d="M15040 18260 l805 -5 6 -70 5 -70 2 66 c1 39 -3 70 -10 77 -9 9 -201
11 -813 10 l-800 -3 805 -5z"/>
<path d="M12863 18095 c0 -27 2 -38 4 -22 2 15 2 37 0 50 -2 12 -4 0 -4 -28z"/>
<path d="M12852 18010 c0 -19 2 -27 5 -17 2 9 2 25 0 35 -3 9 -5 1 -5 -18z"/>
<path d="M15842 17990 c0 -19 2 -27 5 -17 2 9 2 25 0 35 -3 9 -5 1 -5 -18z"/>
<path d="M12843 17920 c0 -25 2 -35 4 -22 2 12 2 32 0 45 -2 12 -4 2 -4 -23z"/>
<path d="M15831 17934 c0 -11 3 -14 6 -6 3 7 2 16 -1 19 -3 4 -6 -2 -5 -13z"/>
<path d="M15822 17885 c0 -16 2 -22 5 -12 2 9 2 23 0 30 -3 6 -5 -1 -5 -18z"/>
<path d="M12832 17770 c0 -19 2 -27 5 -17 2 9 2 25 0 35 -3 9 -5 1 -5 -18z"/>
<path d="M15813 17730 c0 -30 2 -43 4 -27 2 15 2 39 0 55 -2 15 -4 2 -4 -28z"/>
<path d="M12815 17685 c-3 -26 -4 -49 -2 -51 3 -3 8 16 12 41 3 26 4 49 2 51
-3 3 -8 -16 -12 -41z"/>
<path d="M15802 17640 c0 -19 2 -27 5 -17 2 9 2 25 0 35 -3 9 -5 1 -5 -18z"/>
<path d="M15793 17555 c0 -22 2 -30 4 -17 2 12 2 30 0 40 -3 9 -5 -1 -4 -23z"/>
<path d="M12803 17495 c0 -38 2 -53 4 -32 2 20 2 52 0 70 -2 17 -4 1 -4 -38z"/>
<path d="M15782 17415 c0 -16 2 -22 5 -12 2 9 2 23 0 30 -3 6 -5 -1 -5 -18z"/>
<path d="M12793 17385 c0 -22 2 -30 4 -17 2 12 2 30 0 40 -3 9 -5 -1 -4 -23z"/>
<path d="M15772 17350 c0 -19 2 -27 5 -17 2 9 2 25 0 35 -3 9 -5 1 -5 -18z"/>
<path d="M12782 17320 c0 -14 2 -19 5 -12 2 6 2 18 0 25 -3 6 -5 1 -5 -13z"/>
<path d="M15762 17285 c0 -16 2 -22 5 -12 2 9 2 23 0 30 -3 6 -5 -1 -5 -18z"/>
<path d="M10150 17265 c-1 -35 3 -35 1316 -35 1218 0 1292 1 1305 18 11 14 11
15 -1 5 -11 -10 -287 -13 -1307 -13 -1220 0 -1293 1 -1302 18 -6 9 -11 12 -11
7z"/>
<path d="M13147 17238 c2 -5 589 -8 1303 -8 714 0 1301 3 1303 8 3 4 -584 7
-1303 7 -719 0 -1306 -3 -1303 -7z"/>
<path d="M9970 16599 c-129 -3 -289 -11 -355 -17 -238 -22 -330 -34 -355 -44
-14 -6 -55 -14 -92 -19 -184 -23 -506 -121 -778 -237 -470 -200 -914 -607
-1146 -1049 -31 -59 -59 -112 -63 -118 -22 -29 -118 -265 -161 -393 -65 -199
-113 -420 -151 -702 -27 -208 -31 -272 -36 -555 -5 -323 7 -708 26 -800 6 -27
15 -90 21 -140 48 -404 164 -776 349 -1120 75 -140 94 -171 149 -250 110 -155
199 -252 427 -465 126 -117 472 -321 691 -407 158 -62 419 -143 509 -158 22
-3 81 -16 130 -27 50 -11 151 -27 225 -34 480 -50 529 -53 940 -53 223 -1 411
3 418 8 8 5 17 47 24 112 5 57 14 112 19 121 5 9 9 45 9 79 0 58 19 267 40
439 5 41 18 172 29 290 12 118 28 268 38 333 15 110 15 119 0 135 -15 15 -46
16 -295 14 -277 -3 -674 11 -807 29 -38 5 -107 14 -152 19 -45 6 -95 15 -110
21 -15 6 -71 24 -123 40 -271 82 -514 236 -663 422 -75 92 -166 248 -220 377
-29 69 -87 265 -98 330 -5 36 -16 99 -24 140 -42 227 -21 763 39 980 34 122
67 227 82 260 45 96 62 130 98 194 123 223 329 415 556 517 25 11 58 27 75 34
46 22 179 63 290 91 189 47 285 54 833 61 478 5 513 7 522 24 7 11 5 58 -4
136 -8 65 -22 197 -31 293 -8 96 -22 225 -30 285 -19 144 -45 429 -45 482 0
23 -4 52 -10 65 -5 13 -13 70 -17 128 l-8 105 -35 18 c-31 15 -62 17 -265 15
-126 -1 -336 -5 -465 -9z m740 -34 c7 -9 16 -60 21 -118 4 -56 12 -142 18
-192 11 -99 28 -275 41 -432 5 -55 13 -110 19 -121 6 -12 11 -63 12 -114 0
-51 4 -124 10 -163 21 -150 31 -325 19 -340 -9 -11 -110 -14 -563 -18 -567 -5
-576 -5 -712 -37 -44 -10 -96 -22 -115 -25 -64 -12 -214 -67 -308 -112 -147
-72 -270 -158 -376 -267 -56 -58 -166 -196 -166 -209 0 -3 -13 -26 -30 -50
-16 -25 -30 -49 -30 -54 0 -4 -8 -24 -18 -43 -28 -53 -78 -186 -102 -270 -12
-41 -26 -85 -31 -98 -5 -13 -9 -37 -9 -55 0 -18 -7 -62 -15 -100 -42 -202 -40
-647 5 -927 22 -133 93 -372 117 -391 7 -6 13 -24 13 -39 0 -15 6 -33 14 -39
8 -7 17 -24 21 -39 15 -61 142 -238 243 -338 62 -62 188 -162 240 -192 137
-77 369 -171 423 -172 9 0 30 -7 45 -15 16 -8 43 -15 59 -15 17 0 48 -5 70
-10 22 -6 87 -15 145 -20 58 -5 134 -14 170 -19 37 -6 248 -11 487 -11 370 0
423 -2 431 -15 8 -16 4 -71 -19 -250 -7 -49 -15 -146 -19 -215 -5 -69 -13
-145 -19 -170 -5 -25 -10 -68 -11 -96 0 -28 -7 -95 -15 -150 -8 -54 -15 -127
-15 -160 0 -34 -5 -86 -10 -115 -6 -30 -14 -102 -19 -161 -5 -72 -13 -115 -24
-132 l-17 -26 -333 0 c-385 0 -729 15 -838 35 -42 8 -96 15 -120 15 -24 1 -91
10 -149 21 -58 11 -132 25 -165 31 -33 6 -91 19 -130 30 -38 11 -88 24 -110
29 -51 11 -235 69 -257 80 -9 5 -58 25 -108 45 -91 36 -193 86 -303 150 -32
19 -60 34 -62 34 -11 0 -243 162 -264 184 -14 14 -28 26 -33 26 -11 0 -298
287 -298 298 0 5 -9 17 -21 28 -20 18 -30 32 -132 183 -76 112 -188 321 -228
426 -11 28 -24 59 -29 70 -31 69 -69 171 -81 219 -4 17 -17 65 -29 106 -12 41
-26 95 -31 120 -24 111 -39 190 -49 250 -5 36 -17 106 -24 155 -34 212 -41
333 -41 745 0 338 3 444 18 570 10 85 20 157 22 160 2 4 9 47 15 96 10 87 16
119 46 254 57 251 184 618 249 720 5 8 20 35 32 60 12 25 37 70 55 100 18 30
42 70 53 89 11 18 62 89 112 158 136 182 345 385 526 507 31 22 57 43 57 47 0
4 12 10 27 14 15 3 30 10 33 15 13 20 372 200 399 200 5 0 14 6 20 14 6 8 26
16 44 19 18 3 77 21 132 41 207 74 538 145 800 172 259 26 358 30 791 32 360
2 413 0 424 -13z"/>
<path d="M11454 16601 c-34 -3 -68 -12 -77 -20 -16 -12 -17 -255 -17 -3270 0
-2931 2 -3259 16 -3279 l15 -22 744 0 c726 0 745 0 755 19 7 13 10 343 10 998
0 599 4 984 10 993 8 13 73 15 484 15 409 0 477 -2 490 -15 7 -8 30 -69 51
-135 20 -66 42 -138 50 -160 7 -22 25 -85 39 -140 15 -55 30 -109 35 -120 5
-11 22 -69 39 -130 39 -141 84 -291 127 -428 19 -60 35 -113 35 -119 0 -5 6
-24 14 -41 8 -18 24 -68 36 -112 12 -44 26 -84 30 -90 4 -5 11 -26 15 -45 6
-32 25 -98 91 -316 13 -44 24 -87 24 -95 0 -8 9 -29 20 -46 l20 -33 817 0
c450 0 824 4 832 9 10 6 12 19 6 47 -8 46 -42 151 -56 178 -6 10 -21 50 -34
90 -34 99 -53 153 -64 174 -4 9 -16 40 -26 67 -10 28 -28 79 -42 115 -46 125
-54 146 -92 260 -40 115 -99 283 -141 395 -13 33 -35 94 -50 135 -15 41 -42
113 -60 160 -18 47 -42 114 -55 150 -12 36 -50 142 -83 235 -33 94 -67 193
-77 220 -10 28 -24 65 -31 83 -25 58 -32 49 121 147 192 123 341 295 457 527
32 64 58 121 58 125 0 4 7 22 16 38 28 54 82 237 108 365 8 41 18 89 21 105
14 63 35 278 46 470 22 359 -21 843 -94 1065 -8 25 -23 72 -32 105 -36 132
-158 387 -253 530 -59 89 -212 255 -312 337 -122 100 -345 225 -515 287 -49
18 -106 39 -125 47 -19 7 -69 20 -110 29 -41 9 -97 22 -125 30 -128 37 -333
54 -750 65 -377 10 -2315 10 -2411 1z m2721 -31 c315 -28 508 -63 690 -128
158 -55 239 -86 255 -97 8 -5 33 -19 55 -30 126 -66 251 -149 320 -211 128
-116 234 -227 259 -273 5 -9 17 -25 27 -36 25 -28 69 -109 145 -265 86 -179
88 -183 113 -270 13 -41 26 -84 31 -96 4 -12 11 -48 15 -80 4 -32 12 -70 17
-84 5 -13 18 -92 29 -175 23 -173 34 -652 19 -865 -11 -147 -38 -358 -50 -380
-4 -8 -11 -45 -15 -83 -4 -37 -11 -70 -16 -73 -5 -3 -9 -14 -9 -25 0 -22 -33
-125 -60 -184 -9 -22 -21 -51 -25 -65 -11 -38 -104 -220 -136 -268 -16 -24
-29 -45 -29 -48 0 -9 -71 -96 -124 -153 -79 -83 -256 -220 -304 -235 -55 -18
-80 -86 -48 -132 8 -11 18 -38 21 -60 4 -21 11 -44 16 -49 4 -6 19 -44 32 -85
14 -41 41 -120 61 -175 21 -55 45 -126 56 -158 10 -32 25 -66 33 -75 8 -10 17
-30 20 -47 5 -31 30 -106 47 -140 6 -11 16 -40 24 -65 8 -25 27 -76 41 -115
15 -38 36 -97 47 -130 10 -33 32 -94 48 -135 16 -41 44 -122 64 -180 19 -58
51 -148 71 -200 55 -146 76 -201 96 -255 9 -27 27 -75 39 -105 12 -30 28 -73
34 -95 7 -22 16 -47 19 -55 20 -46 37 -106 37 -131 l0 -29 -805 0 -805 0 -20
32 c-11 18 -20 42 -20 53 0 11 -13 60 -30 110 -16 49 -46 144 -66 210 -20 66
-42 134 -50 152 -8 17 -14 38 -14 47 0 15 -19 78 -90 306 -17 52 -30 100 -30
107 0 6 -13 52 -30 101 -16 50 -30 97 -30 105 0 8 -7 28 -15 43 -8 16 -15 37
-15 46 0 10 -6 35 -14 55 -21 58 -76 247 -76 262 0 7 -6 27 -14 44 -15 36 -61
184 -81 266 -8 30 -20 60 -28 68 -11 11 -101 14 -507 13 -272 0 -498 -4 -503
-9 -5 -5 -9 -453 -10 -996 -2 -964 -2 -987 -21 -1001 -17 -12 -132 -14 -729
-14 -469 0 -715 3 -728 10 -19 11 -19 58 -19 3270 0 2597 3 3259 13 3263 22 9
2669 6 2772 -3z"/>
<path d="M12894 15058 c-9 -14 -7 -1489 2 -1498 3 -3 272 -5 597 -5 l592 0
100 29 c273 79 407 230 461 516 27 142 14 463 -21 516 -8 13 -15 32 -15 43 0
46 -65 155 -134 226 -72 73 -127 106 -264 158 -56 21 -69 22 -684 25 -505 2
-628 0 -634 -10z m1266 -26 c178 -53 280 -120 354 -232 103 -155 134 -299 122
-566 -11 -229 -60 -349 -196 -484 -51 -50 -100 -90 -120 -96 -19 -7 -62 -21
-95 -33 -152 -54 -108 -51 -735 -49 l-585 3 -3 734 c-2 581 1 737 10 743 7 5
276 7 598 4 545 -4 589 -5 650 -24z"/>
<path d="M16738 16602 c-25 -1 -51 -9 -57 -16 -8 -9 -10 -953 -9 -3292 l3
-3279 1936 -3 c1751 -2 1938 -1 1950 14 7 8 16 54 20 102 4 48 14 137 23 197
8 61 18 166 21 235 6 114 17 221 46 445 6 44 14 143 19 220 4 77 14 171 21
208 22 114 169 101 -1237 107 -976 4 -1234 8 -1251 18 l-23 13 0 469 0 469 22
15 c20 14 131 16 994 16 892 0 973 1 985 17 20 23 21 1466 1 1501 l-13 22
-979 0 c-879 0 -980 2 -994 16 -14 14 -16 67 -14 477 l3 461 25 13 c20 10 282
13 1248 13 l1222 0 12 24 c8 19 7 47 -5 118 -9 51 -19 152 -22 223 -3 72 -10
150 -15 175 -13 65 -29 231 -40 412 -5 87 -14 192 -20 235 -6 43 -17 134 -24
202 -10 90 -19 128 -30 137 -9 6 -58 14 -111 18 -94 6 -3618 5 -3707 -2z
m3800 -31 c9 -5 16 -46 22 -117 5 -60 12 -118 15 -129 7 -24 20 -155 39 -390
8 -93 19 -213 26 -265 6 -52 16 -135 21 -184 6 -49 15 -137 19 -195 5 -58 13
-125 18 -149 17 -78 119 -72 -1262 -72 -987 1 -1232 -2 -1242 -12 -11 -10 -14
-117 -14 -493 l-1 -480 21 -17 c21 -17 80 -18 1006 -18 l984 0 1 -32 c0 -32 0
-1391 -1 -1435 l0 -23 -995 0 c-973 0 -995 0 -1005 -19 -6 -13 -10 -189 -10
-502 0 -435 2 -484 17 -501 15 -17 68 -18 1261 -18 l1244 0 -6 -47 c-3 -27
-10 -106 -16 -178 -5 -71 -14 -152 -20 -178 -5 -26 -10 -76 -10 -110 -1 -34
-5 -82 -11 -107 -5 -25 -16 -121 -24 -215 -24 -278 -34 -378 -44 -420 -6 -22
-12 -78 -15 -125 -3 -65 -8 -87 -22 -97 -14 -10 -391 -12 -1933 -10 l-1916 2
-3 3264 c-2 2605 0 3266 10 3273 17 10 3829 10 3846 -1z"/>
<path d="M21327 16601 c-80 -4 -110 -10 -117 -21 -6 -9 -10 -1246 -10 -3277 0
-2952 1 -3263 16 -3277 14 -14 105 -16 854 -16 657 0 874 3 1002 15 90 8 188
16 218 19 123 10 261 29 360 48 58 12 128 24 156 28 70 11 231 55 345 96 53
19 100 34 105 34 30 0 319 139 472 227 283 163 556 418 738 691 68 102 77 117
140 224 63 108 143 292 186 428 16 52 40 127 53 167 13 39 29 100 36 135 6 34
15 68 19 73 4 6 15 55 24 110 10 55 24 129 31 165 31 148 71 637 69 845 -2
224 -46 743 -72 850 -5 22 -15 74 -22 115 -6 41 -18 93 -25 115 -7 22 -21 76
-30 120 -9 44 -23 94 -30 110 -8 17 -19 50 -26 75 -67 263 -217 564 -411 818
-35 46 -73 98 -86 115 -33 46 -220 234 -268 271 -23 17 -86 65 -140 107 -54
42 -109 81 -122 88 -12 6 -29 23 -38 37 -16 24 -16 27 28 92 69 103 78 120 78
140 0 46 -39 51 -185 26 -49 -8 -115 -19 -145 -23 -30 -5 -73 -13 -95 -19 -22
-6 -65 -13 -95 -17 -30 -4 -104 -16 -165 -26 -60 -11 -162 -29 -225 -39 -63
-10 -158 -26 -210 -35 -431 -72 -426 -71 -447 -116 -13 -27 -7 -73 42 -344 9
-49 30 -169 46 -265 52 -303 67 -392 88 -495 11 -55 30 -163 42 -240 25 -156
39 -201 68 -210 33 -10 57 11 131 115 87 123 99 128 178 74 73 -50 215 -191
276 -274 26 -36 53 -72 60 -81 7 -9 35 -60 61 -115 64 -133 73 -154 81 -189 3
-16 12 -46 19 -66 39 -103 76 -336 87 -539 12 -227 -1 -527 -27 -654 -37 -176
-50 -228 -82 -325 -31 -98 -116 -269 -166 -336 -55 -75 -149 -184 -188 -220
-151 -137 -394 -269 -591 -319 -31 -8 -65 -19 -76 -25 -10 -5 -54 -15 -98 -20
-43 -6 -113 -15 -154 -20 -127 -16 -324 -23 -340 -12 -13 9 -16 304 -20 2515
-4 1832 -8 2508 -16 2516 -13 13 -1201 23 -1387 11z m1378 -30 c3 -5 5 -1135
5 -2511 0 -1698 3 -2508 10 -2521 9 -16 22 -19 92 -19 135 0 417 38 553 75 28
7 67 16 88 20 54 9 257 94 257 107 0 5 7 8 16 8 18 0 167 87 229 133 52 39
166 157 219 227 77 100 176 277 176 314 0 13 6 26 13 29 8 3 21 31 31 64 9 32
26 87 38 123 11 36 27 106 35 155 8 50 20 119 26 155 13 81 12 695 -2 765 -5
28 -17 86 -26 130 -9 44 -21 104 -26 134 -5 29 -16 65 -23 80 -8 14 -17 42
-21 61 -10 50 -48 133 -129 280 -24 44 -33 57 -104 151 -43 57 -131 148 -178
185 -20 16 -49 39 -63 50 -15 12 -45 32 -69 44 -68 36 -89 22 -179 -115 -14
-22 -29 -42 -32 -45 -3 -3 -11 -14 -17 -24 -16 -29 -33 -31 -43 -4 -5 13 -19
79 -31 148 -12 69 -28 157 -36 195 -8 39 -21 111 -29 160 -8 50 -22 126 -31
170 -9 44 -20 107 -24 140 -8 62 -51 301 -75 415 -7 36 -19 107 -26 158 -11
79 -11 94 2 107 15 15 90 31 299 64 63 10 156 26 205 34 50 9 146 26 215 37
69 11 148 25 175 31 28 6 77 14 110 19 33 5 101 16 150 25 283 51 319 55 326
43 8 -13 4 -21 -68 -129 -24 -35 -43 -72 -43 -84 0 -19 47 -75 63 -75 11 0
102 -63 110 -77 4 -7 13 -13 18 -13 11 0 30 -14 109 -78 58 -48 330 -321 330
-332 0 -7 25 -40 80 -107 6 -7 20 -28 31 -48 12 -19 25 -35 30 -35 5 0 9 -6 9
-13 0 -8 13 -32 29 -54 16 -22 32 -49 35 -61 4 -12 11 -22 16 -22 5 0 13 -15
20 -34 6 -18 19 -41 30 -51 10 -9 22 -37 26 -61 3 -24 10 -44 14 -44 4 0 17
-24 29 -52 12 -29 28 -65 36 -80 8 -14 15 -33 15 -41 0 -8 11 -40 25 -71 14
-31 25 -69 25 -85 0 -16 6 -34 14 -40 7 -6 17 -30 20 -54 4 -23 13 -62 21 -87
8 -25 22 -74 31 -110 9 -36 20 -74 25 -85 5 -11 10 -63 11 -115 1 -68 7 -103
19 -125 15 -27 23 -87 35 -265 2 -30 5 -77 8 -105 3 -27 8 -153 11 -280 3
-126 8 -251 11 -278 2 -26 0 -65 -6 -86 -8 -31 -21 -208 -21 -293 0 -10 -3
-18 -7 -18 -4 0 -8 -55 -10 -122 -2 -71 -8 -132 -16 -147 -7 -14 -14 -46 -15
-70 -2 -24 -8 -56 -13 -70 -9 -22 -24 -90 -30 -138 -1 -9 -5 -10 -13 -3 -9 7
-16 6 -25 -5 -10 -12 -10 -15 3 -15 25 0 28 -14 16 -76 -13 -69 -44 -140 -54
-124 -5 8 -11 8 -21 -1 -10 -8 -12 -15 -5 -22 7 -7 7 -14 0 -23 -7 -8 -7 -14
1 -19 16 -10 12 -62 -9 -96 l-20 -32 -7 29 c-4 16 -8 43 -9 59 0 17 -4 35 -7
41 -8 11 -66 13 -84 2 -6 -4 -11 -43 -12 -93 -1 -93 9 -111 13 -23 3 77 3 78
28 87 29 11 44 -2 42 -36 -1 -16 3 -34 9 -42 9 -12 8 -13 -4 -6 -12 6 -13 5
-2 -6 14 -15 17 -120 3 -117 -5 2 -8 0 -7 -3 0 -4 -7 -16 -17 -26 -9 -11 -14
-22 -11 -25 13 -13 -17 -85 -39 -95 -21 -10 -24 -9 -24 16 -1 60 -2 64 -17 52
-8 -7 -13 -21 -11 -32 7 -38 16 -59 25 -59 10 0 -8 -83 -20 -90 -5 -3 -11 -17
-15 -31 -3 -13 -15 -31 -27 -38 -11 -7 -17 -8 -14 -2 4 5 2 12 -2 15 -10 6
-10 -34 1 -50 3 -6 -5 -24 -18 -38 -14 -15 -25 -31 -25 -36 0 -5 -8 -16 -17
-26 -10 -9 -18 -24 -19 -32 -2 -9 -10 -19 -18 -24 -9 -5 -16 -13 -16 -18 0
-13 -37 -50 -50 -50 -5 0 -10 -9 -10 -19 0 -11 -13 -33 -30 -49 -16 -17 -30
-33 -30 -36 0 -3 -21 -28 -47 -55 -27 -28 -67 -73 -91 -100 -24 -28 -50 -51
-58 -51 -8 0 -19 -11 -24 -25 -5 -14 -20 -29 -32 -34 -13 -5 -36 -23 -52 -40
-17 -17 -35 -31 -42 -31 -7 0 -21 -11 -32 -25 -23 -29 -175 -133 -214 -147
-16 -6 -28 -14 -28 -18 0 -4 -12 -13 -27 -19 -16 -6 -42 -19 -59 -30 -16 -10
-41 -22 -54 -26 -13 -4 -41 -20 -63 -36 -22 -16 -47 -29 -57 -29 -9 0 -25 -7
-36 -15 -10 -8 -27 -15 -37 -15 -10 0 -39 -11 -65 -24 -26 -13 -63 -27 -82
-31 -19 -4 -46 -13 -60 -20 -27 -14 -101 -33 -165 -44 -22 -4 -51 -13 -64 -20
-13 -7 -70 -21 -127 -32 -56 -10 -111 -23 -121 -28 -17 -9 -125 -24 -303 -41
-47 -5 -103 -14 -125 -21 -31 -10 -267 -13 -1020 -13 l-980 -1 -6 55 c-4 30
-7 1496 -8 3257 -1 3052 -1 3202 16 3212 23 13 1459 15 1468 2z"/>
<path d="M25903 13945 c0 -22 2 -30 4 -17 2 12 2 30 0 40 -3 9 -5 -1 -4 -23z"/>
<path d="M25869 13169 c0 -2 -3 -56 -5 -119 -3 -63 -9 -119 -15 -124 -5 -6 -9
-21 -9 -35 0 -24 1 -24 18 -8 13 13 17 37 19 95 1 42 3 101 4 129 2 29 0 56
-4 60 -4 3 -7 4 -8 2z"/>
<path d="M25925 13161 c-3 -5 -2 -12 3 -15 5 -3 9 1 9 9 0 17 -3 19 -12 6z"/>
<path d="M25898 12704 c-1 -21 -2 -54 -3 -72 -2 -23 1 -30 8 -23 11 11 13 118
3 129 -3 3 -7 -12 -8 -34z"/>
<path d="M25851 12478 c-10 -27 -6 -38 15 -38 8 0 14 10 14 24 0 34 -18 42
-29 14z"/>
<path d="M25800 12435 c0 -37 3 -45 13 -37 18 15 19 58 2 72 -13 11 -15 6 -15
-35z"/>
<path d="M25779 12134 c-16 -20 -20 -42 -8 -50 5 -3 6 -11 2 -17 -4 -7 -9 -23
-11 -37 -2 -19 0 -22 8 -14 6 6 13 27 14 45 1 19 7 34 13 34 19 0 25 12 18 34
-8 25 -18 27 -36 5z"/>
<path d="M25562 11930 c0 -14 2 -19 5 -12 2 6 2 18 0 25 -3 6 -5 1 -5 -13z"/>
<path d="M25561 11740 c-1 -15 -5 -30 -10 -35 -12 -13 6 -58 19 -50 12 7 12
49 0 85 l-8 25 -1 -25z"/>
<path d="M25642 11713 c-2 -33 1 -43 13 -43 9 0 20 12 25 26 14 35 13 38 -13
49 -21 10 -22 8 -25 -32z"/>
<path d="M25561 11484 c0 -11 3 -14 6 -6 3 7 2 16 -1 19 -3 4 -6 -2 -5 -13z"/>
<path d="M25421 11468 c-12 -4 -19 -12 -16 -18 8 -13 95 -8 96 5 0 14 -53 23
-80 13z"/>
<path d="M25355 11391 c-6 -11 9 -23 19 -14 9 9 7 23 -3 23 -6 0 -12 -4 -16
-9z"/>
<path d="M25433 11337 c-10 -31 -10 -40 -2 -52 5 -6 -5 -25 -22 -42 -16 -18
-29 -36 -29 -42 0 -17 38 0 43 20 3 10 12 19 20 19 10 0 13 8 10 24 -3 13 3
36 12 50 10 15 15 30 11 33 -15 15 -36 10 -43 -10z"/>
<path d="M25345 11139 c-10 -15 3 -25 16 -12 7 7 7 13 1 17 -6 3 -14 1 -17 -5z"/>
<path d="M25075 10970 c-3 -5 -1 -10 4 -10 6 0 11 5 11 10 0 6 -2 10 -4 10 -3
0 -8 -4 -11 -10z"/>
<path d="M24705 10600 c-3 -5 1 -10 10 -10 9 0 13 5 10 10 -3 6 -8 10 -10 10
-2 0 -7 -4 -10 -10z"/>
<path d="M9703 6481 c-64 -22 -111 -54 -184 -123 -131 -125 -158 -361 -61
-525 35 -59 174 -193 220 -211 10 -4 95 -54 190 -112 178 -109 313 -186 417
-239 33 -17 79 -41 101 -54 23 -13 50 -27 60 -31 11 -4 51 -25 89 -46 39 -22
167 -87 285 -146 118 -58 240 -119 271 -135 31 -16 63 -29 70 -29 7 0 20 -6
28 -13 9 -8 32 -20 51 -27 34 -13 155 -62 195 -80 11 -5 54 -23 95 -41 41 -17
98 -42 125 -55 92 -42 221 -74 304 -74 99 0 163 19 247 74 175 116 236 310
164 522 -16 48 -43 104 -58 123 -63 78 -208 155 -572 306 -102 42 -239 102
-305 134 -66 32 -174 85 -240 117 -66 32 -205 103 -308 158 -255 137 -293 157
-359 197 -194 116 -335 201 -348 210 -8 5 -61 32 -117 60 -99 48 -105 50 -205
55 -83 3 -113 0 -155 -15z m217 -26 c92 -18 230 -88 450 -229 83 -54 190 -116
279 -163 25 -13 52 -29 60 -36 9 -7 36 -22 61 -32 25 -10 57 -27 72 -38 24
-16 133 -73 258 -137 55 -27 278 -133 355 -169 39 -17 86 -40 105 -50 19 -10
78 -35 130 -56 243 -97 447 -188 471 -211 14 -13 29 -24 33 -24 5 0 25 -13 45
-30 66 -51 131 -197 131 -293 0 -64 -28 -171 -54 -207 -68 -92 -87 -110 -141
-143 -33 -20 -80 -43 -104 -52 -93 -32 -224 -11 -400 66 -64 28 -136 58 -161
66 -25 8 -70 26 -100 40 -30 14 -86 39 -125 55 -152 64 -583 271 -658 316 -18
11 -43 23 -57 27 -14 4 -43 20 -66 36 -22 15 -117 67 -210 115 -93 48 -183 98
-200 111 -17 13 -51 34 -75 46 -83 44 -174 99 -194 117 -11 10 -44 30 -74 45
-120 60 -233 164 -279 257 -29 60 -32 74 -33 169 -1 79 2 111 15 134 9 17 16
36 16 44 0 28 94 131 165 180 35 25 62 33 170 55 35 7 38 6 115 -9z"/>
<path d="M14190 4781 c-73 -7 -220 -72 -256 -112 -36 -42 -94 -137 -110 -181
-37 -105 -26 -261 24 -348 15 -24 55 -75 90 -112 54 -57 74 -71 140 -96 42
-16 113 -34 157 -41 44 -7 112 -18 150 -26 135 -27 649 -89 940 -115 224 -19
747 -40 1010 -40 297 0 375 10 485 61 78 36 101 57 164 152 35 54 47 84 57
140 15 91 7 207 -20 277 -26 69 -126 178 -197 213 -110 55 -134 58 -624 67
-250 5 -529 14 -620 19 -157 11 -627 56 -680 66 -14 3 -90 14 -170 25 -80 11
-183 27 -230 35 -108 18 -227 24 -310 16z m225 -41 c438 -68 886 -119 1235
-140 91 -6 347 -13 570 -16 439 -6 487 -12 599 -69 148 -74 237 -292 187 -456
-26 -85 -88 -185 -136 -219 -49 -35 -131 -68 -210 -84 -171 -36 -1193 3 -1685
64 -44 6 -156 19 -250 30 -93 11 -206 27 -250 35 -44 8 -111 19 -150 25 -170
26 -201 33 -215 45 -8 7 -32 18 -53 25 -67 21 -182 161 -207 253 -15 57 -9
207 11 252 28 61 92 155 118 172 65 43 140 76 186 83 74 11 182 11 250 0z"/>
</g>
</svg>
